<svg width="270" height="241" viewBox="0 0 270 241" fill="none" xmlns="http://www.w3.org/2000/svg">
<path d="M43.5369 42.7592L53.5957 64.9007C65.8895 38.5213 38.8205 30.1499 38.8205 30.1499L38.8438 30.212C38.3237 31.0652 24.4342 54.3536 50.2731 66.0454L43.5369 42.7592Z" fill="#6CB40C"/>
<path d="M27.0949 69.79L45.4431 73.0533C28.193 87.1905 16.8357 68.6834 16.8357 68.6834L16.8872 68.6891C17.4207 68.1414 32.0738 53.4044 45.6619 70.368L27.0949 69.79Z" fill="#6CB40C"/>
<path d="M59.5583 74.5114C59.5583 77.1226 57.4432 79.2376 54.8334 79.2376C52.2237 79.2376 50.1072 77.1226 50.1072 74.5114C50.1072 71.9023 52.2237 69.7865 54.8334 69.7865C57.4432 69.7865 59.5583 71.9023 59.5583 74.5114Z" fill="#6CB40C"/>
<mask id="mask0_24_477" style="mask-type:luminance" maskUnits="userSpaceOnUse" x="13" y="53" width="10" height="10">
<path d="M13 53.0959H22.624V62.6713H13V53.0959Z" fill="white"/>
</mask>
<g mask="url(#mask0_24_477)">
<path d="M17.7178 62.6607C15.108 62.6607 12.9929 60.5442 12.9929 57.9351C12.9929 55.3261 15.108 53.2089 17.7178 53.2089C20.3276 53.2089 22.444 55.3261 22.444 57.9351C22.444 60.5442 20.3276 62.6607 17.7178 62.6607Z" fill="#6CB40C"/>
</g>
<path d="M63.4949 38.5127C64.9057 39.9228 64.9057 42.2115 63.4949 43.6215C62.0835 45.033 59.7969 45.033 58.3855 43.6215C56.9747 42.2115 56.9747 39.9228 58.3855 38.5127C59.7969 37.1027 62.0835 37.1027 63.4949 38.5127Z" fill="#6CB40C"/>
<path d="M32.5375 52.9817C33.2023 53.6472 33.2023 54.7234 32.5375 55.3896C31.8727 56.053 30.795 56.053 30.1309 55.3896C29.4661 54.7234 29.4661 53.6472 30.1309 52.9817C30.795 52.3183 31.8727 52.3183 32.5375 52.9817Z" fill="#6CB40C"/>
<path d="M22.6918 80.2397C23.924 80.2397 24.9219 81.2369 24.9219 82.4691C24.9219 83.6999 23.924 84.6985 22.6918 84.6985C21.461 84.6985 20.4624 83.6999 20.4624 82.4691C20.4624 81.2369 21.461 80.2397 22.6918 80.2397Z" fill="#6CB40C"/>
<path d="M226.804 42.7598L216.745 64.9007C204.452 38.5198 231.521 30.1484 231.521 30.1484L231.498 30.2112C232.018 31.0631 245.908 54.3535 220.067 66.0439L226.804 42.7598Z" fill="#6CB40C"/>
<path d="M243.247 69.79L224.898 73.0526C242.15 87.1905 253.505 68.6835 253.505 68.6835L253.455 68.6891C252.92 68.1408 238.267 53.4044 224.681 70.368L243.247 69.79Z" fill="#6CB40C"/>
<path d="M210.782 74.5114C210.782 77.1226 212.899 79.2376 215.508 79.2376C218.117 79.2376 220.235 77.1226 220.235 74.5114C220.235 71.9023 218.117 69.7865 215.508 69.7865C212.899 69.7865 210.782 71.9023 210.782 74.5114Z" fill="#6CB40C"/>
<mask id="mask1_24_477" style="mask-type:luminance" maskUnits="userSpaceOnUse" x="247" y="53" width="11" height="10">
<path d="M247.735 53.0959H257.307V62.6713H247.735V53.0959Z" fill="white"/>
</mask>
<g mask="url(#mask1_24_477)">
<path d="M252.621 62.6614C255.231 62.6614 257.347 60.5449 257.347 57.9365C257.347 55.3267 255.231 53.2103 252.621 53.2103C250.014 53.2103 247.897 55.3267 247.897 57.9365C247.897 60.5449 250.014 62.6614 252.621 62.6614Z" fill="#6CB40C"/>
</g>
<path d="M206.847 38.5127C205.435 39.9228 205.435 42.2115 206.847 43.6215C208.257 45.033 210.546 45.033 211.956 43.6215C213.366 42.2115 213.366 39.9228 211.956 38.5127C210.546 37.1027 208.257 37.1027 206.847 38.5127Z" fill="#6CB40C"/>
<path d="M237.804 52.9831C237.138 53.6479 237.138 54.7255 237.804 55.3896C238.468 56.0551 239.546 56.0551 240.21 55.3896C240.876 54.7255 240.876 53.6479 240.21 52.9831C239.546 52.319 238.468 52.319 237.804 52.9831Z" fill="#6CB40C"/>
<path d="M247.649 80.2405C246.416 80.2405 245.418 81.237 245.418 82.4699C245.418 83.7007 246.416 84.6993 247.649 84.6993C248.88 84.6993 249.879 83.7007 249.879 82.4699C249.879 81.237 248.88 80.2405 247.649 80.2405Z" fill="#6CB40C"/>
<mask id="mask2_24_477" style="mask-type:luminance" maskUnits="userSpaceOnUse" x="93" y="15" width="33" height="99">
<path d="M93.4453 15H125.604V113.258H93.4453V15Z" fill="white"/>
</mask>
<g mask="url(#mask2_24_477)">
<path d="M105.53 89.3726L104.336 108.798C107.781 110.559 111.385 112.026 115.11 113.175L113.648 89.3726C113.152 81.3033 115.72 73.2156 121.252 67.3192C123.931 64.4639 125.572 60.624 125.572 56.3981V15.0438H121.005V50.5631C121.005 51.8242 119.984 52.8454 118.722 52.8454C117.461 52.8454 116.439 51.8242 116.439 50.5631V15.0438H111.872V50.5631C111.872 51.8242 110.849 52.8454 109.588 52.8454C108.328 52.8454 107.305 51.8242 107.305 50.5631V15.0438H102.738V50.5631C102.738 51.8242 101.716 52.8454 100.455 52.8454C99.1942 52.8454 98.1716 51.8242 98.1716 50.5631V15.0438H93.6048V56.3981C93.6048 60.624 95.2463 64.4639 97.9253 67.3192C103.457 73.2156 106.025 81.3033 105.53 89.3726Z" fill="#DB6A92"/>
</g>
<mask id="mask3_24_477" style="mask-type:luminance" maskUnits="userSpaceOnUse" x="138" y="15" width="39" height="100">
<path d="M138.793 15H176.913V114.161H138.793V15Z" fill="white"/>
</mask>
<g mask="url(#mask3_24_477)">
<path d="M153.763 88.8835L152.22 114.024C155.977 113.055 159.629 111.774 163.132 110.189L161.822 88.8835C161.353 81.2574 163.829 73.6934 168.913 67.9911C173.653 62.6741 176.736 54.0459 176.736 44.3047C176.736 28.1442 168.255 15.0438 157.792 15.0438C147.331 15.0438 138.851 28.1442 138.851 44.3047C138.851 54.0459 141.933 62.6741 146.673 67.9911C151.758 73.6934 154.233 81.2574 153.763 88.8835Z" fill="#DB6A92"/>
</g>
<path d="M208.163 86.031C208.101 85.9992 208.04 85.9681 207.976 85.9364C203.347 83.5778 197.636 84.9801 194.741 89.2964C180.652 110.312 157.91 120.818 135.171 120.818C112.431 120.818 89.6901 110.312 75.5995 89.2964C72.7061 84.9801 66.9946 83.5778 62.365 85.9364C62.3022 85.9681 62.2401 85.9992 62.178 86.031C56.6726 88.8376 54.7989 95.8314 58.2351 100.967C76.4147 128.144 105.793 141.731 135.171 141.731C164.548 141.731 193.926 128.144 212.107 100.967C215.541 95.8314 213.669 88.8376 208.163 86.031Z" fill="#DB6A92"/>
<mask id="mask4_24_477" style="mask-type:luminance" maskUnits="userSpaceOnUse" x="20" y="141" width="232" height="63">
<path d="M251.167 141.803H20.6367V203.591H251.167V141.803Z" fill="white"/>
</mask>
<g mask="url(#mask4_24_477)">
<path d="M30.2304 193.083V193.185C30.2981 193.185 30.3835 193.185 30.4872 193.185C30.5903 193.185 30.6771 193.168 30.747 193.134C30.8839 193.134 30.9869 193.049 31.0546 192.877C31.0885 192.842 31.0885 192.798 31.0546 192.747C31.0208 192.696 31.0038 192.653 31.0038 192.617V188.648C31.0038 188.063 31.0208 187.471 31.0546 186.87C31.0885 186.268 31.1055 185.692 31.1055 185.142V181.585C31.1055 181 31.1055 180.408 31.1055 179.807C31.1055 179.205 31.1055 178.629 31.1055 178.079C31.1055 177.494 31.097 176.902 31.0801 176.301C31.0631 175.699 31.0546 175.105 31.0546 174.52C31.0546 173.937 31.0631 173.345 31.0801 172.744C31.097 172.142 31.1055 171.566 31.1055 171.014C31.1055 170.431 31.097 169.839 31.0801 169.238C31.0631 168.636 31.0546 168.043 31.0546 167.457V167.251C31.0546 167.044 31.0631 166.846 31.0801 166.658C31.097 166.468 31.1055 166.287 31.1055 166.116C31.1407 166.048 31.1407 165.98 31.1055 165.913C31.0716 165.843 31.0716 165.791 31.1055 165.755C31.1407 165.651 31.2791 165.599 31.5204 165.599V165.548C31.6912 165.548 31.7943 165.565 31.8281 165.599C31.862 165.599 31.8789 165.609 31.8789 165.628C31.8789 165.644 31.8966 165.653 31.9326 165.653C32.1372 165.791 32.2918 165.876 32.3955 165.91C32.5663 166.047 32.7293 166.168 32.8839 166.271C33.0399 166.375 33.1867 166.496 33.3243 166.632C33.4951 166.77 33.6327 166.899 33.7364 167.019C33.8395 167.14 33.9432 167.252 34.0469 167.355L34.1994 167.508C34.2685 167.544 34.3292 167.57 34.38 167.587C34.4323 167.604 34.476 167.646 34.5099 167.714C34.6807 167.887 34.8437 168.094 34.9983 168.335C35.1542 168.574 35.301 168.78 35.4386 168.953L35.5403 169.055C35.5755 169.091 35.6024 169.108 35.6193 169.108C35.6362 169.108 35.6447 169.108 35.6447 169.108C35.7125 169.176 35.7463 169.227 35.7463 169.261L36.2121 170.034C36.2799 170.138 36.3391 170.242 36.39 170.345C36.4422 170.448 36.4859 170.551 36.5198 170.652C36.5551 170.688 36.5734 170.74 36.5734 170.808C36.7781 171.22 36.9835 171.633 37.1888 172.047C37.3956 172.459 37.5678 172.888 37.7054 173.334C37.7407 173.404 37.7492 173.491 37.7308 173.594C37.7139 173.695 37.7231 173.815 37.7591 173.952C37.7929 173.988 37.8268 174.014 37.8607 174.031C37.8946 174.048 37.9115 174.091 37.9115 174.158C37.9807 174.298 38.0498 174.453 38.1176 174.624C38.1867 174.796 38.239 174.968 38.2728 175.141C38.342 175.484 38.4112 175.827 38.4789 176.171C38.5481 176.514 38.6003 176.857 38.6342 177.201V177.252C38.7033 177.734 38.7986 178.216 38.9193 178.698C39.0393 179.18 39.1169 179.66 39.1508 180.14C39.1846 180.174 39.1931 180.226 39.1762 180.295C39.1592 180.365 39.1508 180.434 39.1508 180.501C39.3216 181.945 39.4331 183.389 39.4839 184.832C39.5361 186.276 39.5799 187.72 39.6137 189.165C39.6137 189.267 39.5799 189.387 39.5121 189.523H39.5629C39.5629 189.523 39.5714 189.533 39.5883 189.552C39.6053 189.569 39.6137 189.577 39.6137 189.577L39.5629 189.628C39.5629 189.662 39.5629 189.689 39.5629 189.707C39.5629 189.724 39.5629 189.766 39.5629 189.834C39.5629 189.938 39.5799 190.05 39.6137 190.17C39.6476 190.291 39.6645 190.42 39.6645 190.557V191.175C39.6645 191.209 39.6476 191.253 39.6137 191.305C39.5799 191.356 39.5629 191.416 39.5629 191.485C39.5629 191.691 39.5799 191.888 39.6137 192.078C39.6476 192.267 39.6822 192.464 39.7182 192.671C39.7182 192.705 39.6998 192.739 39.6645 192.773C39.6307 192.807 39.6137 192.842 39.6137 192.877C39.6476 193.015 39.7676 193.083 39.9751 193.083C40.0442 193.083 40.1049 193.092 40.1557 193.109C40.2065 193.126 40.2496 193.134 40.2856 193.134C40.8346 193.134 41.3759 193.126 41.9088 193.109C42.4409 193.092 42.9652 193.083 43.4811 193.083C43.8594 193.083 44.2292 193.092 44.5905 193.109C44.9519 193.126 45.3033 193.134 45.6463 193.134L46.0076 193.185C46.2144 193.117 46.352 192.98 46.4198 192.773C46.4198 192.739 46.4113 192.688 46.3944 192.62C46.3774 192.551 46.369 192.499 46.369 192.465C46.369 191.812 46.3774 191.168 46.3944 190.531C46.4113 189.895 46.4198 189.251 46.4198 188.598C46.4198 187.945 46.4028 187.292 46.369 186.638C46.3351 185.986 46.3182 185.333 46.3182 184.679C46.3182 184.027 46.3266 183.382 46.3436 182.746C46.3605 182.11 46.369 181.465 46.369 180.812C46.369 179.265 46.3774 177.718 46.3944 176.171C46.4113 174.624 46.4198 173.077 46.4198 171.53C46.4198 170.945 46.4113 170.515 46.3944 170.24C46.3774 169.966 46.3605 169.683 46.3436 169.39C46.3266 169.099 46.3182 168.661 46.3182 168.075C46.3182 167.492 46.3266 167.063 46.3436 166.788C46.3605 166.511 46.369 166.227 46.369 165.935C46.369 165.644 46.369 165.223 46.369 164.673V161.269C46.369 160.686 46.3774 160.257 46.3944 159.982C46.4113 159.705 46.4198 159.421 46.4198 159.129C46.4198 158.838 46.4198 158.417 46.4198 157.867C46.4198 157.798 46.4028 157.737 46.369 157.687C46.3351 157.634 46.3182 157.591 46.3182 157.557C46.3182 157.42 46.2998 157.317 46.2645 157.249C46.2645 157.249 46.2306 157.215 46.1629 157.145C46.129 157.111 46.0853 157.077 46.033 157.043C45.9822 157.008 45.9215 156.989 45.8524 156.989H42.8629C42.4148 156.989 41.9582 156.999 41.4938 157.018C41.0308 157.035 40.5763 157.043 40.1303 157.043C40.0964 157.043 40.0612 157.035 40.0259 157.018C39.992 156.999 39.9412 156.989 39.8734 156.989C39.7337 157.059 39.6645 157.163 39.6645 157.3C39.6307 157.334 39.6222 157.378 39.6391 157.43C39.6561 157.481 39.6645 157.523 39.6645 157.557V157.712C39.6645 157.712 39.673 157.712 39.6899 157.712C39.7083 157.712 39.7182 157.712 39.7182 157.712V157.763C39.7182 157.797 39.7083 157.824 39.6899 157.842C39.673 157.859 39.6645 157.884 39.6645 157.918C39.6645 158.126 39.6561 158.324 39.6391 158.514C39.6222 158.702 39.6137 158.899 39.6137 159.104C39.6137 159.448 39.6137 159.801 39.6137 160.162C39.6137 160.522 39.5968 160.891 39.5629 161.269C39.5629 161.303 39.5714 161.347 39.5883 161.399C39.6053 161.45 39.6137 161.493 39.6137 161.529C39.546 161.768 39.4253 161.887 39.2524 161.887C39.1148 161.887 39.0124 161.853 38.9447 161.786C38.9087 161.752 38.8826 161.718 38.8657 161.684C38.8487 161.649 38.8064 161.613 38.7386 161.579C38.4973 161.269 38.2397 161.011 37.9651 160.806L37.8099 160.651C37.74 160.583 37.6702 160.524 37.601 160.473C37.5332 160.421 37.4655 160.376 37.3977 160.34L36.469 159.671C36.3314 159.568 36.1677 159.447 35.9778 159.31C35.7894 159.173 35.6094 159.087 35.4386 159.053C35.301 159.053 35.2142 159.036 35.1789 159.002L35.0265 158.847C34.9905 158.778 34.9474 158.734 34.8966 158.717C34.8458 158.7 34.7851 158.675 34.716 158.641C33.8917 158.296 33.0321 158.021 32.1386 157.814C31.5889 157.643 31.0645 157.514 30.5663 157.43C30.0673 157.344 29.543 157.283 28.9939 157.249C28.9579 157.249 28.9149 157.232 28.8641 157.198C28.8133 157.163 28.7526 157.128 28.6834 157.094C28.2374 157.06 27.7561 157.051 27.2409 157.068C26.725 157.085 26.226 157.094 25.7447 157.094C25.641 157.094 25.5288 157.077 25.4088 157.043C25.2881 157.008 25.1759 156.989 25.0729 156.989H24.7652C24.7313 156.989 24.7045 156.999 24.6861 157.018C24.6692 157.035 24.6269 157.043 24.5591 157.043C24.4554 157.111 24.3686 157.197 24.2994 157.3C24.2994 157.334 24.3079 157.378 24.3248 157.43C24.3432 157.481 24.353 157.54 24.353 157.608C24.353 157.608 24.3347 157.617 24.2994 157.636C24.2655 157.653 24.2486 157.678 24.2486 157.712C24.2486 157.746 24.2571 157.771 24.274 157.788C24.2909 157.805 24.2994 157.832 24.2994 157.867C24.2994 157.867 24.2994 157.92 24.2994 158.023V161.836C24.2994 162.456 24.2994 163.083 24.2994 163.719C24.2994 164.356 24.2994 164.982 24.2994 165.599C24.2994 166.254 24.2909 166.891 24.274 167.51C24.2571 168.128 24.2486 168.763 24.2486 169.416V173.179C24.2486 173.832 24.2655 174.468 24.2994 175.087C24.3347 175.707 24.353 176.343 24.353 176.995V180.758C24.353 181.412 24.353 182.048 24.353 182.667C24.353 183.286 24.353 183.922 24.353 184.575C24.353 185.195 24.3432 185.822 24.3248 186.458C24.3079 187.094 24.2994 187.721 24.2994 188.338C24.2994 188.991 24.2909 189.627 24.274 190.246C24.2571 190.866 24.2486 191.502 24.2486 192.154L24.2994 192.361C24.2994 192.361 24.2994 192.369 24.2994 192.386C24.2994 192.403 24.2994 192.43 24.2994 192.465L24.2486 192.516C24.2486 192.516 24.2655 192.516 24.2994 192.516C24.3347 192.516 24.353 192.533 24.353 192.567C24.353 192.567 24.3432 192.575 24.3248 192.592C24.3079 192.609 24.2994 192.636 24.2994 192.671L24.2486 192.722C24.2825 192.756 24.2994 192.808 24.2994 192.877C24.3347 192.979 24.4384 193.03 24.6099 193.03C24.6791 193.066 24.7483 193.1 24.816 193.134C24.8852 193.168 24.9374 193.185 24.9713 193.185C25.5203 193.185 26.0531 193.176 26.569 193.159C27.0842 193.142 27.617 193.134 28.1668 193.134C28.5451 193.134 28.8965 193.126 29.2226 193.109C29.55 193.092 29.886 193.083 30.2304 193.083Z" fill="#6CB40C"/>
<path d="M74.2621 170.601C74.2621 169.881 74.2706 169.16 74.2875 168.439C74.3045 167.716 74.313 166.994 74.313 166.271C74.313 165.584 74.3214 164.881 74.3384 164.16C74.3553 163.437 74.3638 162.714 74.3638 161.992C74.3638 161.269 74.3468 160.548 74.313 159.826C74.2791 159.104 74.2621 158.399 74.2621 157.712C74.2621 157.678 74.2791 157.644 74.313 157.61C74.3468 157.575 74.3638 157.54 74.3638 157.506L74.2621 157.249C74.2621 157.112 74.2099 157.043 74.1069 157.043C74.0391 157.008 73.953 156.989 73.85 156.989C73.4019 156.989 72.9368 157.008 72.4555 157.043C71.9756 157.077 71.4943 157.094 71.013 157.094C70.5331 157.094 70.0518 157.077 69.5704 157.043C69.0884 157.008 68.6064 156.989 68.1251 156.989C68.1251 156.989 68.1166 157.008 68.0997 157.043C68.0828 157.077 68.0574 157.094 68.0235 157.094C67.816 157.094 67.696 157.18 67.6622 157.351C67.6283 157.385 67.6283 157.428 67.6622 157.481C67.696 157.531 67.713 157.592 67.713 157.661C67.713 158.279 67.7045 158.888 67.6876 159.49C67.6706 160.093 67.6622 160.686 67.6622 161.269C67.6622 161.889 67.6537 162.499 67.6368 163.101C67.6198 163.702 67.6113 164.294 67.6113 164.879C67.6113 165.499 67.6283 166.11 67.6622 166.712C67.696 167.312 67.713 167.904 67.713 168.487C67.713 169.107 67.696 169.717 67.6622 170.319C67.6283 170.92 67.6113 171.513 67.6113 172.098V175.705C67.6113 176.325 67.6198 176.935 67.6368 177.537C67.6537 178.138 67.6622 178.731 67.6622 179.316C67.6622 179.935 67.6438 180.546 67.6085 181.148C67.5746 181.748 67.5577 182.358 67.5577 182.977C67.5577 183.011 67.5831 183.055 67.6339 183.107C67.6862 183.158 67.713 183.217 67.713 183.285V183.44C67.713 183.44 67.713 183.449 67.713 183.466C67.713 183.482 67.713 183.509 67.713 183.545C67.713 183.612 67.7045 183.69 67.6876 183.776C67.6706 183.863 67.6622 183.94 67.6622 184.008C67.6622 184.111 67.6438 184.215 67.6085 184.318C67.5746 184.42 67.5238 184.523 67.4561 184.626C67.4222 184.867 67.3185 185.125 67.1456 185.399C67.1117 185.435 67.0679 185.478 67.0157 185.529C66.9649 185.58 66.9056 185.641 66.8379 185.71C66.7002 185.847 66.5796 185.95 66.4765 186.017C66.2013 186.259 65.8583 186.431 65.4462 186.534C65.2726 186.568 65.1004 186.612 64.9296 186.664C64.7581 186.715 64.5859 186.74 64.413 186.74C64.2076 186.74 64.0015 186.689 63.7948 186.585C63.6571 186.551 63.5111 186.5 63.3572 186.432C63.2027 186.363 63.0566 186.293 62.9197 186.224C62.5753 185.985 62.317 185.762 62.1462 185.554C62.0763 185.451 62.0064 185.357 61.9373 185.272C61.8695 185.186 61.8018 185.091 61.734 184.987C61.698 184.85 61.6536 184.721 61.6014 184.6C61.5505 184.48 61.5082 184.351 61.4743 184.214C61.4405 184.146 61.4235 184.06 61.4235 183.957C61.4235 183.854 61.4066 183.768 61.3727 183.7C61.3727 183.665 61.3896 183.621 61.4235 183.57C61.4574 183.518 61.4743 183.474 61.4743 183.44C61.4743 183.406 61.4475 183.381 61.3953 183.364C61.3445 183.347 61.3367 183.338 61.3727 183.338V183.079C61.3727 182.462 61.3727 181.852 61.3727 181.25C61.3727 180.648 61.3727 180.038 61.3727 179.42V175.81C61.3727 175.225 61.3812 174.623 61.3981 174.006C61.415 173.387 61.4235 172.785 61.4235 172.199C61.4235 171.582 61.415 170.973 61.3981 170.37C61.3812 169.768 61.3727 169.158 61.3727 168.541C61.3727 167.956 61.3896 167.354 61.4235 166.737C61.4574 166.118 61.4743 165.516 61.4743 164.93V161.32C61.4743 160.703 61.4659 160.093 61.4489 159.49C61.432 158.888 61.4235 158.279 61.4235 157.661C61.4235 157.626 61.432 157.599 61.4489 157.582C61.4659 157.565 61.4743 157.54 61.4743 157.506C61.4743 157.369 61.4574 157.265 61.4235 157.195C61.4235 157.128 61.3374 157.094 61.1666 157.094C61.1306 157.094 61.0961 157.085 61.0622 157.068C61.0283 157.051 60.9944 157.043 60.9606 157.043C60.4785 157.043 59.9965 157.051 59.5152 157.068C59.0332 157.085 58.5526 157.094 58.0727 157.094C57.6246 157.094 57.151 157.077 56.6528 157.043C56.156 157.008 55.6662 156.989 55.1849 156.989H55.0296C54.9619 157.025 54.9181 157.068 54.8998 157.119C54.8828 157.17 54.8574 157.231 54.8235 157.3C54.7537 157.505 54.7191 157.626 54.7191 157.661C54.7191 158.279 54.7276 158.897 54.7445 159.516C54.7628 160.136 54.7727 160.754 54.7727 161.373C54.7727 161.957 54.7628 162.558 54.7445 163.177C54.7276 163.797 54.7191 164.416 54.7191 165.035V168.693C54.7191 169.313 54.7191 169.932 54.7191 170.551C54.7191 171.17 54.7191 171.789 54.7191 172.405C54.7191 172.991 54.7276 173.593 54.7445 174.212C54.7628 174.832 54.7727 175.45 54.7727 176.067C54.7727 176.686 54.7628 177.305 54.7445 177.924C54.7276 178.544 54.7191 179.145 54.7191 179.728C54.7191 180.348 54.7106 180.967 54.6937 181.585C54.6767 182.203 54.6683 182.821 54.6683 183.44V183.801C54.6683 183.871 54.6937 183.95 54.7445 184.036C54.7967 184.12 54.8235 184.197 54.8235 184.264C54.8235 184.402 54.8151 184.531 54.7981 184.651C54.7812 184.772 54.7897 184.884 54.8235 184.987C54.8574 185.091 54.8743 185.186 54.8743 185.272C54.8743 185.357 54.892 185.435 54.928 185.504C54.9619 185.607 54.9957 185.703 55.0296 185.789C55.0635 185.873 55.0804 185.968 55.0804 186.071L55.2865 186.74C55.3557 186.948 55.4163 187.163 55.4672 187.387C55.5194 187.609 55.5977 187.806 55.7015 187.979C55.7692 188.151 55.8715 188.314 56.0092 188.468C56.1461 188.622 56.2668 188.786 56.3705 188.959C56.5413 189.268 56.7304 189.543 56.9379 189.783C57.0056 189.851 57.0734 189.954 57.1411 190.091C57.2103 190.229 57.2802 190.332 57.35 190.401C57.487 190.539 57.633 190.651 57.7876 190.737C57.9414 190.822 58.0882 190.934 58.228 191.07C58.3296 191.14 58.4319 191.227 58.5357 191.33C58.6387 191.434 58.7594 191.519 58.897 191.587C59.0678 191.691 59.2223 191.811 59.36 191.948C59.4969 192.086 59.6521 192.207 59.8257 192.31C59.9965 192.413 60.185 192.5 60.3903 192.569C60.5971 192.637 60.7869 192.705 60.9606 192.773C61.1313 192.807 61.2944 192.859 61.4489 192.928C61.6028 192.996 61.7489 193.065 61.8865 193.134L62.2986 193.238C62.4715 193.272 62.6183 193.298 62.739 193.315C62.859 193.332 62.9881 193.357 63.1257 193.391C63.2274 193.426 63.3382 193.445 63.4588 193.445C63.5788 193.445 63.691 193.445 63.7948 193.445C63.9317 193.478 64.0524 193.495 64.1561 193.495C64.2591 193.495 64.3629 193.495 64.4666 193.495C64.5344 193.529 64.6106 193.511 64.6953 193.442C64.7814 193.374 64.8597 193.357 64.9296 193.391V193.445C64.9635 193.445 64.9973 193.435 65.0312 193.416C65.0665 193.399 65.1018 193.391 65.1356 193.391H65.3417C65.4786 193.391 65.6508 193.357 65.8583 193.289C66.0291 193.289 66.2006 193.289 66.3721 193.289C66.545 193.289 66.7172 193.272 66.8887 193.238C66.9578 193.169 66.9931 193.134 66.9931 193.134C67.0609 193.1 67.1286 193.083 67.1964 193.083C67.2655 193.083 67.3178 193.066 67.3516 193.03C67.4208 192.996 67.5076 192.979 67.6113 192.979C67.7144 192.979 67.8174 192.962 67.919 192.928C68.0919 192.859 68.2472 192.773 68.3848 192.671C68.5217 192.568 68.6594 192.481 68.797 192.411C68.9339 192.344 69.0539 192.276 69.1555 192.208C69.2585 192.139 69.3623 192.086 69.466 192.05C69.6389 191.982 69.785 191.897 69.9036 191.793C70.0235 191.69 70.1534 191.604 70.2931 191.536C70.3947 191.433 70.5055 191.347 70.6262 191.279C70.7462 191.21 70.8584 191.123 70.9621 191.02C71.0299 190.952 71.0984 190.884 71.1682 190.816C71.2374 190.747 71.3065 190.694 71.3743 190.658L71.9925 190.04C72.0617 189.937 72.1393 189.834 72.224 189.732C72.3101 189.629 72.3884 189.526 72.4583 189.422C72.5599 189.319 72.6453 189.207 72.7152 189.086C72.7843 188.966 72.8366 188.837 72.8704 188.699C72.9735 188.528 73.085 188.365 73.2035 188.211C73.3235 188.057 73.4188 187.91 73.4887 187.77C73.5564 187.669 73.6072 187.558 73.6411 187.437C73.6764 187.317 73.7117 187.188 73.7455 187.051C73.7455 187.015 73.7801 186.963 73.85 186.895C73.85 186.792 73.8839 186.672 73.9516 186.534L74.1069 185.554C74.1408 185.451 74.1662 185.339 74.1831 185.219C74.2014 185.099 74.2283 184.969 74.2621 184.832C74.296 184.695 74.3214 184.575 74.3384 184.473C74.3553 184.37 74.3638 184.25 74.3638 184.112C74.3638 184.077 74.3299 183.956 74.2621 183.751C74.2621 183.681 74.2791 183.604 74.313 183.519C74.3468 183.433 74.3638 183.355 74.3638 183.285V179.059C74.3638 178.37 74.3722 177.666 74.3892 176.945C74.4075 176.222 74.4174 175.518 74.4174 174.83C74.4174 174.108 74.3906 173.395 74.3384 172.69C74.2875 171.985 74.2621 171.289 74.2621 170.601Z" fill="#6CB40C"/>
<path d="M94.7806 178.491C94.7806 176.463 94.7721 174.435 94.7552 172.408C94.7383 170.38 94.7298 168.368 94.7298 166.373C94.7298 165.996 94.7637 165.619 94.8314 165.241C94.9006 164.862 95.1081 164.605 95.4525 164.467C95.6233 164.398 95.7863 164.363 95.9408 164.363C96.0968 164.363 96.2605 164.363 96.432 164.363C97.2563 164.433 98.1152 164.433 99.0093 164.363C99.1822 164.329 99.3544 164.295 99.5259 164.261C99.6967 164.226 99.8513 164.139 99.9889 164.001C100.126 163.864 100.203 163.718 100.22 163.564C100.239 163.41 100.266 163.247 100.299 163.075C100.367 162.319 100.393 161.571 100.376 160.831C100.359 160.092 100.316 159.344 100.249 158.587C100.213 158.382 100.178 158.177 100.144 157.972C100.11 157.765 100.007 157.593 99.8336 157.455C99.696 157.318 99.5238 157.24 99.317 157.224C99.1117 157.205 98.9232 157.195 98.7525 157.195C96.2436 157.094 93.7425 157.043 91.2491 157.043C88.7572 157.043 86.2568 157.077 83.7487 157.144C83.5412 157.144 83.3429 157.163 83.153 157.198C82.9646 157.232 82.7846 157.3 82.6138 157.401C82.3047 157.575 82.1156 157.842 82.0464 158.203C81.9787 158.563 81.9448 158.931 81.9448 159.31C81.9088 159.792 81.8912 160.291 81.8912 160.806C81.8912 161.322 81.8912 161.821 81.8912 162.302C81.8912 162.541 81.9081 162.799 81.942 163.075C81.9773 163.351 82.0641 163.591 82.2017 163.795C82.4423 164.07 82.7522 164.243 83.1304 164.312C83.5087 164.38 83.8686 164.413 84.2116 164.413H86.0155C86.5306 164.346 86.9273 164.433 87.2039 164.673C87.3408 164.811 87.4269 164.991 87.4608 165.215C87.4947 165.437 87.5116 165.652 87.5116 165.859V176.634C87.5116 178.078 87.5116 179.513 87.5116 180.939C87.5116 182.366 87.5116 183.801 87.5116 185.244V189.523C87.5116 189.834 87.5201 190.153 87.537 190.48C87.5539 190.806 87.5455 191.123 87.5116 191.432C87.4777 191.673 87.4777 191.905 87.5116 192.129C87.5455 192.353 87.6824 192.551 87.9237 192.722C88.1305 192.859 88.3542 192.945 88.5956 192.979C88.8363 193.012 89.0762 193.029 89.3154 193.029C89.9344 193.065 90.5533 193.091 91.1729 193.108C91.7918 193.125 92.4277 193.117 93.0812 193.083C93.2859 193.083 93.5004 193.058 93.7248 193.007C93.9486 192.955 94.1292 192.859 94.2668 192.722C94.4715 192.551 94.5915 192.328 94.6254 192.053C94.6606 191.776 94.679 191.518 94.679 191.276C94.7129 189.146 94.7383 187.007 94.7552 184.86C94.7721 182.711 94.7806 180.588 94.7806 178.491Z" fill="#6CB40C"/>
<path d="M107.105 174.985C107.105 175.673 107.114 176.36 107.131 177.049C107.148 177.736 107.156 178.423 107.156 179.11V183.183C107.156 183.87 107.156 184.558 107.156 185.247C107.156 185.934 107.156 186.621 107.156 187.307V191.432C107.156 191.468 107.138 191.521 107.103 191.59C107.069 191.657 107.052 191.725 107.052 191.793L107.207 192.256C107.344 192.634 107.533 192.842 107.774 192.877C107.842 192.911 107.919 192.911 108.006 192.877C108.092 192.842 108.17 192.823 108.237 192.823C109.063 192.823 109.889 192.833 110.713 192.852C111.537 192.868 112.379 192.877 113.24 192.877C113.309 192.877 113.386 192.868 113.471 192.852C113.557 192.833 113.618 192.823 113.652 192.823C113.823 192.756 113.926 192.705 113.962 192.671C114.133 192.568 114.219 192.396 114.219 192.154C114.253 192.085 114.287 192.016 114.321 191.948C114.356 191.879 114.374 191.81 114.374 191.742C114.374 191.193 114.366 190.643 114.349 190.094C114.332 189.542 114.324 188.992 114.324 188.442C114.324 187.893 114.332 187.343 114.349 186.794C114.366 186.242 114.374 185.692 114.374 185.142C114.374 184.593 114.356 184.043 114.321 183.494C114.287 182.942 114.288 182.392 114.324 181.842C114.324 181.635 114.341 181.498 114.374 181.43C114.374 181.396 114.408 181.345 114.476 181.275C114.545 181.207 114.623 181.182 114.708 181.199C114.794 181.215 114.855 181.207 114.891 181.173H115.56C115.801 181.173 116.024 181.165 116.229 181.148C116.436 181.129 116.643 181.12 116.85 181.12C117.089 181.12 117.312 181.111 117.519 181.094C117.726 181.077 117.932 181.069 118.137 181.069H118.188C118.361 181.069 118.525 181.096 118.679 181.148C118.833 181.199 118.979 181.241 119.117 181.275C119.186 181.309 119.272 181.326 119.374 181.326C119.477 181.326 119.564 181.361 119.634 181.43C119.804 181.498 119.967 181.575 120.122 181.662C120.278 181.748 120.425 181.861 120.562 181.997C120.664 182.101 120.749 182.222 120.819 182.359C120.888 182.496 120.958 182.634 121.025 182.771C121.094 182.942 121.147 183.132 121.181 183.338C121.214 183.544 121.248 183.767 121.282 184.007C121.282 184.145 121.299 184.3 121.333 184.473C121.368 184.645 121.404 184.816 121.437 184.987C121.437 185.573 121.429 186.166 121.412 186.768C121.395 187.369 121.387 187.961 121.387 188.544C121.387 189.13 121.395 189.723 121.412 190.325C121.429 190.926 121.437 191.518 121.437 192.103C121.437 192.137 121.42 192.19 121.387 192.259C121.353 192.326 121.336 192.396 121.336 192.465C121.37 192.704 121.559 192.892 121.903 193.029C122.108 193.099 122.262 193.134 122.366 193.134H127.625C127.659 193.134 127.676 193.134 127.676 193.134C127.676 193.134 127.694 193.134 127.73 193.134C127.934 193.134 128.106 193.082 128.243 192.979L128.399 192.823C128.466 192.756 128.535 192.619 128.605 192.411V191.999C128.605 191.38 128.605 190.753 128.605 190.119C128.605 189.483 128.605 188.839 128.605 188.185C128.605 187.566 128.596 186.939 128.579 186.302C128.562 185.667 128.554 185.022 128.554 184.369V183.44C128.554 183.337 128.571 183.225 128.605 183.107C128.639 182.987 128.639 182.875 128.605 182.771C128.605 182.598 128.57 182.426 128.5 182.254C128.433 182.084 128.382 181.929 128.348 181.791C128.312 181.585 128.277 181.387 128.243 181.199C128.21 181.009 128.157 180.828 128.088 180.657C128.054 180.554 128.011 180.459 127.958 180.374C127.908 180.288 127.848 180.193 127.78 180.089C127.677 179.781 127.539 179.454 127.368 179.11C127.265 178.939 127.144 178.767 127.007 178.596C126.869 178.423 126.749 178.251 126.646 178.079C126.542 177.976 126.421 177.821 126.284 177.613C126.217 177.51 126.217 177.356 126.284 177.15C126.284 177.047 126.301 176.961 126.335 176.894C126.438 176.755 126.542 176.608 126.646 176.453C126.749 176.299 126.852 176.153 126.956 176.016C127.024 175.913 127.109 175.818 127.213 175.733C127.316 175.647 127.402 175.535 127.47 175.397C127.539 175.294 127.591 175.182 127.625 175.062C127.659 174.942 127.694 174.829 127.73 174.726C127.797 174.624 127.857 174.513 127.908 174.392C127.96 174.273 128.02 174.16 128.088 174.057C128.157 173.92 128.21 173.782 128.243 173.644C128.277 173.508 128.312 173.37 128.348 173.232C128.416 173.059 128.501 172.887 128.605 172.716C128.708 172.545 128.777 172.373 128.811 172.199C128.845 172.062 128.862 171.933 128.862 171.812C128.862 171.692 128.879 171.563 128.915 171.426L129.068 170.395C129.068 170.327 129.068 170.268 129.068 170.217C129.068 170.165 129.068 170.104 129.068 170.034C129.068 169.931 129.076 169.828 129.093 169.726C129.112 169.623 129.121 169.519 129.121 169.416V168.385C129.121 168.385 129.13 168.385 129.147 168.385C129.164 168.385 129.172 168.385 129.172 168.385C129.172 168.248 129.145 168.128 129.093 168.024C129.042 167.921 129.017 167.817 129.017 167.713C128.983 167.543 128.975 167.38 128.992 167.225C129.008 167.071 128.983 166.925 128.915 166.788C128.879 166.547 128.793 166.271 128.656 165.96C128.622 165.79 128.578 165.61 128.526 165.421C128.475 165.231 128.416 165.051 128.348 164.879C128.278 164.672 128.208 164.466 128.139 164.261C128.071 164.054 127.985 163.865 127.882 163.694L127.831 163.488C127.764 163.351 127.686 163.222 127.6 163.101C127.513 162.981 127.418 162.852 127.315 162.714C127.247 162.577 127.169 162.448 127.083 162.327C126.999 162.207 126.921 162.095 126.852 161.991C126.748 161.821 126.627 161.683 126.49 161.579C126.353 161.476 126.232 161.356 126.129 161.218C126.027 161.115 125.941 161.003 125.872 160.882C125.802 160.762 125.717 160.651 125.615 160.549C125.512 160.48 125.408 160.393 125.305 160.289C125.201 160.186 125.116 160.1 125.048 160.032C124.944 159.963 124.84 159.877 124.737 159.775C124.634 159.672 124.548 159.586 124.481 159.516L123.346 158.742C123.312 158.742 123.277 158.752 123.241 158.77C123.207 158.787 123.173 158.778 123.14 158.742C123.07 158.708 122.991 158.674 122.905 158.641C122.821 158.605 122.726 158.57 122.623 158.536C122.555 158.468 122.469 158.409 122.366 158.358C122.262 158.306 122.177 158.262 122.109 158.228L121.387 157.918C121.179 157.849 120.972 157.78 120.766 157.712C120.56 157.643 120.355 157.59 120.15 157.557C119.943 157.489 119.736 157.421 119.529 157.353C119.324 157.284 119.101 157.231 118.86 157.195C118.79 157.195 118.653 157.161 118.448 157.094H118.036C117.932 157.094 117.82 157.102 117.7 157.119C117.579 157.136 117.45 157.144 117.313 157.144C117.209 157.111 116.788 157.102 116.048 157.119C115.31 157.136 114.391 157.161 113.29 157.195C112.637 157.195 111.976 157.17 111.306 157.119C110.636 157.068 109.957 157.043 109.271 157.043C109.063 157.043 108.856 157.051 108.65 157.068C108.444 157.085 108.238 157.111 108.031 157.144C107.928 157.178 107.832 157.187 107.746 157.17C107.662 157.153 107.585 157.18 107.518 157.249C107.31 157.387 107.19 157.541 107.156 157.712C107.122 157.849 107.105 158.073 107.105 158.381C107.105 158.933 107.096 159.483 107.077 160.032C107.06 160.582 107.052 161.132 107.052 161.681V165.035C107.052 165.584 107.069 166.134 107.103 166.683C107.138 167.233 107.156 167.783 107.156 168.335C107.156 168.884 107.138 169.434 107.103 169.983C107.069 170.533 107.052 171.1 107.052 171.685C107.052 172.235 107.06 172.785 107.077 173.334C107.096 173.884 107.105 174.434 107.105 174.985ZM114.324 169.159V165.599C114.324 165.462 114.341 165.342 114.374 165.241C114.408 165.138 114.425 165.017 114.425 164.879C114.494 164.639 114.615 164.518 114.787 164.518C114.856 164.518 114.916 164.509 114.967 164.493C115.018 164.476 115.061 164.467 115.097 164.467H117.107C117.175 164.467 117.26 164.459 117.364 164.442C117.467 164.423 117.554 164.413 117.624 164.413C117.691 164.413 117.759 164.432 117.827 164.467C117.896 164.501 117.948 164.535 117.982 164.569C118.085 164.569 118.18 164.577 118.267 164.594C118.353 164.611 118.448 164.638 118.55 164.673L119.272 164.981C119.409 165.051 119.53 165.129 119.634 165.215C119.737 165.3 119.857 165.378 119.995 165.447C120.098 165.514 120.219 165.584 120.356 165.653C120.493 165.72 120.596 165.807 120.664 165.91L121.181 166.528C121.351 166.803 121.506 167.129 121.643 167.507C121.713 167.681 121.765 167.853 121.799 168.024C121.833 168.195 121.867 168.368 121.903 168.541C121.903 168.678 121.92 168.799 121.954 168.902C121.988 169.004 121.988 169.124 121.954 169.26C121.954 169.364 121.936 169.459 121.9 169.546C121.866 169.63 121.833 169.725 121.799 169.828C121.799 169.965 121.782 170.103 121.748 170.24C121.714 170.378 121.662 170.515 121.593 170.652C121.559 170.792 121.515 170.922 121.463 171.042C121.412 171.16 121.351 171.289 121.282 171.426C121.214 171.563 121.137 171.71 121.051 171.866C120.966 172.021 120.871 172.15 120.768 172.253C120.699 172.354 120.62 172.449 120.534 172.535C120.449 172.622 120.372 172.699 120.303 172.766C120.201 172.87 120.08 172.949 119.941 173.001C119.804 173.052 119.666 173.111 119.529 173.179C119.29 173.318 119.067 173.448 118.86 173.568C118.653 173.687 118.412 173.781 118.137 173.85C118.034 173.884 117.921 173.893 117.801 173.876C117.683 173.859 117.571 173.85 117.468 173.85C117.261 173.884 117.054 173.893 116.847 173.876C116.642 173.859 116.436 173.867 116.229 173.901H114.993C114.925 173.901 114.864 173.884 114.812 173.85C114.761 173.817 114.701 173.782 114.631 173.746C114.528 173.644 114.459 173.559 114.425 173.489C114.425 173.455 114.408 173.421 114.374 173.388C114.341 173.352 114.324 173.317 114.324 173.283V173.179C114.324 173.077 114.332 172.983 114.349 172.896C114.366 172.81 114.374 172.733 114.374 172.665C114.374 172.08 114.366 171.495 114.349 170.912C114.332 170.327 114.324 169.742 114.324 169.159Z" fill="#6CB40C"/>
<path d="M135.924 175.087V179.265C135.924 179.952 135.916 180.648 135.899 181.354C135.882 182.058 135.873 182.753 135.873 183.44V187.564C135.873 188.253 135.89 188.95 135.924 189.656C135.959 190.36 135.978 191.055 135.978 191.742C135.978 191.984 135.995 192.154 136.029 192.256C136.132 192.704 136.373 192.962 136.751 193.029C136.888 193.065 137.026 193.083 137.163 193.083C137.3 193.083 137.438 193.083 137.576 193.083C138.158 193.083 138.768 193.091 139.405 193.108C140.041 193.125 140.651 193.134 141.237 193.134C141.34 193.134 141.434 193.117 141.519 193.083C141.605 193.048 141.717 193.029 141.855 193.029C141.923 192.996 142.008 192.97 142.112 192.953C142.215 192.936 142.302 192.893 142.372 192.823C142.439 192.722 142.508 192.533 142.578 192.256C142.679 191.981 142.73 191.725 142.73 191.485C142.73 190.866 142.722 190.256 142.705 189.653C142.688 189.051 142.679 188.441 142.679 187.824C142.679 187.205 142.688 186.586 142.705 185.966C142.722 185.348 142.73 184.746 142.73 184.163V180.45C142.73 179.865 142.73 179.264 142.73 178.647C142.73 178.028 142.73 177.409 142.73 176.789C142.73 176.17 142.722 175.56 142.705 174.96C142.688 174.358 142.679 173.747 142.679 173.128C142.679 172.509 142.679 171.899 142.679 171.299C142.679 170.697 142.645 170.086 142.578 169.467V165.808C142.578 165.189 142.603 164.57 142.654 163.951C142.705 163.332 142.73 162.713 142.73 162.093C142.73 161.51 142.722 160.909 142.705 160.289C142.688 159.67 142.679 159.052 142.679 158.435V157.918C142.542 157.54 142.267 157.299 141.855 157.195C141.717 157.161 141.58 157.144 141.443 157.144C141.305 157.144 141.168 157.144 141.031 157.144C140.411 157.144 139.792 157.128 139.173 157.094C138.554 157.06 137.935 157.043 137.319 157.043C137.145 157.043 136.956 157.077 136.751 157.144C136.681 157.178 136.595 157.205 136.492 157.224C136.39 157.24 136.287 157.283 136.184 157.351C136.046 157.488 135.942 157.677 135.873 157.918V158.073C135.873 158.177 135.882 158.289 135.899 158.409C135.916 158.528 135.924 158.639 135.924 158.742V162.816C135.924 163.503 135.916 164.19 135.899 164.879C135.882 165.567 135.873 166.253 135.873 166.94V171.013C135.873 171.667 135.882 172.337 135.899 173.026C135.916 173.714 135.924 174.4 135.924 175.087Z" fill="#6CB40C"/>
<path d="M171.553 175.087C171.553 174.504 171.57 173.92 171.604 173.337C171.638 172.752 171.655 172.184 171.655 171.632C171.655 171.049 171.647 170.465 171.63 169.881C171.613 169.296 171.604 168.729 171.604 168.179V164.724C171.604 164.139 171.613 163.555 171.63 162.971C171.647 162.386 171.655 161.802 171.655 161.218C171.655 160.633 171.647 160.057 171.63 159.49C171.613 158.924 171.604 158.348 171.604 157.763C171.604 157.729 171.596 157.703 171.579 157.686C171.562 157.67 171.553 157.643 171.553 157.607C171.52 157.54 171.511 157.489 171.528 157.455C171.545 157.42 171.536 157.384 171.503 157.351C171.503 157.214 171.467 157.111 171.398 157.043H171.141C170.934 157.043 170.547 157.043 169.981 157.043C169.414 157.043 168.795 157.051 168.124 157.068C167.453 157.085 166.86 157.094 166.345 157.094C165.829 157.094 165.538 157.094 165.47 157.094H165.366C165.16 157.094 165.023 157.18 164.953 157.351V157.763C164.953 158.416 164.97 159.061 165.004 159.696C165.039 160.333 165.058 160.994 165.058 161.681C165.058 162.334 165.048 162.979 165.03 163.615C165.013 164.251 165.004 164.912 165.004 165.599C165.004 166.254 164.987 166.9 164.953 167.536C164.92 168.17 164.903 168.831 164.903 169.52C164.903 170.174 164.92 170.818 164.953 171.454C164.987 172.088 165.004 172.75 165.004 173.438C165.004 174.092 164.987 174.736 164.953 175.372C164.92 176.009 164.903 176.67 164.903 177.357C164.903 178.01 164.928 178.654 164.979 179.29C165.031 179.927 165.058 180.588 165.058 181.275C165.058 181.928 165.039 182.573 165.004 183.208C164.97 183.845 164.953 184.506 164.953 185.193C164.953 185.227 164.945 185.279 164.928 185.348C164.911 185.418 164.92 185.487 164.953 185.554V185.605C164.953 185.641 164.962 185.676 164.979 185.71C164.996 185.743 164.987 185.796 164.953 185.865C164.953 185.899 164.92 185.95 164.852 186.017C164.852 186.121 164.816 186.189 164.747 186.223C164.677 186.259 164.557 186.277 164.386 186.277C164.181 186.277 164.043 186.259 163.974 186.223C163.87 186.223 163.758 186.223 163.638 186.223C163.517 186.223 163.406 186.206 163.305 186.173C163.201 186.139 163.106 186.088 163.02 186.02C162.933 185.951 162.839 185.899 162.737 185.865C162.6 185.796 162.445 185.743 162.272 185.71C162.1 185.676 161.929 185.641 161.758 185.605C161.584 185.503 161.394 185.41 161.188 185.323C160.982 185.237 160.794 185.141 160.623 185.038C160.485 184.936 160.356 184.825 160.236 184.705C160.116 184.585 159.986 184.472 159.85 184.369L159.539 184.058C159.505 184.024 159.419 183.973 159.282 183.906C159.282 183.837 159.282 183.801 159.282 183.801C159.282 183.801 159.23 183.75 159.127 183.646L158.87 183.389C158.836 183.32 158.792 183.234 158.74 183.132C158.689 183.029 158.629 182.942 158.559 182.873C158.492 182.77 158.431 182.666 158.379 182.565C158.328 182.462 158.267 182.358 158.198 182.254C158.164 182.151 158.112 182.048 158.043 181.947C157.975 181.844 157.924 181.74 157.89 181.636C157.821 181.499 157.742 181.388 157.656 181.303C157.571 181.217 157.512 181.104 157.478 180.964C157.341 180.622 157.237 180.244 157.168 179.832C157.134 179.659 157.117 179.479 157.117 179.29C157.117 179.1 157.099 178.92 157.063 178.748C156.962 178.062 156.911 177.409 156.911 176.789V172.973C156.911 172.32 156.919 171.676 156.936 171.042C156.953 170.406 156.962 169.778 156.962 169.159C156.962 168.506 156.943 167.862 156.908 167.225C156.874 166.589 156.857 165.962 156.857 165.342C156.857 164.689 156.866 164.045 156.883 163.409C156.901 162.773 156.911 162.146 156.911 161.528C156.911 160.876 156.893 160.231 156.857 159.595C156.823 158.959 156.806 158.332 156.806 157.712V157.401C156.773 157.3 156.703 157.231 156.6 157.195C156.567 157.195 156.531 157.17 156.496 157.119C156.462 157.068 156.428 157.043 156.394 157.043C155.948 157.043 155.484 157.051 155.003 157.068C154.521 157.085 154.039 157.094 153.557 157.094C153.111 157.094 152.655 157.102 152.191 157.119C151.728 157.136 151.255 157.144 150.774 157.144C150.74 157.144 150.723 157.136 150.723 157.119C150.723 157.102 150.706 157.094 150.672 157.094C150.535 157.094 150.431 157.197 150.362 157.401C150.294 157.539 150.26 157.643 150.26 157.712C150.26 158.262 150.25 158.821 150.232 159.389C150.215 159.955 150.206 160.531 150.206 161.113C150.206 161.665 150.223 162.216 150.257 162.765C150.293 163.315 150.311 163.882 150.311 164.467C150.311 165.017 150.302 165.576 150.286 166.144C150.269 166.711 150.26 167.286 150.26 167.869V171.22C150.26 171.771 150.26 172.33 150.26 172.896C150.26 173.463 150.26 174.022 150.26 174.573C150.26 175.431 150.269 176.291 150.286 177.15C150.302 178.009 150.362 178.868 150.466 179.728L150.619 180.45C150.654 180.622 150.681 180.794 150.698 180.967C150.715 181.139 150.74 181.31 150.774 181.481C150.843 181.756 150.929 182.031 151.031 182.305C151.134 182.58 151.238 182.856 151.341 183.132C151.41 183.27 151.471 183.407 151.522 183.544C151.573 183.682 151.633 183.82 151.703 183.957C151.737 184.094 151.77 184.223 151.804 184.343C151.84 184.464 151.875 184.576 151.909 184.679C151.943 184.747 152.003 184.825 152.089 184.911C152.175 184.995 152.236 185.073 152.27 185.142C152.338 185.28 152.389 185.409 152.422 185.529C152.458 185.65 152.51 185.779 152.578 185.916C152.613 185.983 152.657 186.044 152.708 186.096C152.758 186.147 152.801 186.208 152.837 186.277C152.905 186.415 152.999 186.535 153.12 186.638C153.24 186.74 153.335 186.86 153.405 186.997C153.473 187.137 153.55 187.275 153.636 187.412C153.722 187.549 153.817 187.669 153.919 187.77C153.988 187.874 154.057 187.961 154.125 188.03C154.194 188.098 154.263 188.167 154.331 188.236C154.4 188.304 154.478 188.365 154.562 188.417C154.648 188.468 154.71 188.528 154.746 188.597L154.898 188.75C154.933 188.75 154.952 188.768 154.952 188.803C154.952 188.837 154.969 188.871 155.003 188.905C155.106 189.009 155.218 189.096 155.339 189.165C155.459 189.233 155.57 189.319 155.672 189.422C155.775 189.489 155.878 189.584 155.982 189.704C156.085 189.825 156.206 189.92 156.344 189.989C156.514 190.127 156.677 190.247 156.832 190.35C156.986 190.452 157.133 190.555 157.272 190.658C157.477 190.796 157.682 190.925 157.888 191.045C158.094 191.166 158.301 191.278 158.509 191.381C158.679 191.451 158.842 191.511 158.997 191.561C159.153 191.612 159.3 191.673 159.437 191.742C159.505 191.776 159.582 191.82 159.669 191.872C159.755 191.923 159.85 191.965 159.951 191.999C160.054 192.033 160.166 192.068 160.287 192.103C160.407 192.137 160.536 192.188 160.674 192.256C160.845 192.292 160.999 192.336 161.137 192.389C161.274 192.439 161.412 192.482 161.552 192.516L162.221 192.671C162.324 192.705 162.427 192.722 162.529 192.722C162.632 192.722 162.735 192.739 162.839 192.773C162.908 192.806 162.994 192.842 163.096 192.877C163.199 192.911 163.286 192.928 163.356 192.928C163.526 192.962 163.681 192.979 163.819 192.979C163.955 192.979 164.093 192.979 164.231 192.979C164.334 193.012 164.523 193.029 164.798 193.029C165.313 193.065 165.623 193.091 165.727 193.108C165.83 193.125 165.891 193.125 165.908 193.108C165.924 193.091 166.053 193.083 166.294 193.083H166.605C166.673 193.048 166.809 193.029 167.017 193.029C167.67 193.029 168.305 193.048 168.922 193.083C169.541 193.117 170.16 193.134 170.78 193.134L170.935 193.029C171.003 193.065 171.062 193.075 171.113 193.058C171.165 193.039 171.209 193.029 171.243 193.029C171.45 193.029 171.553 192.927 171.553 192.722C171.553 192.653 171.57 192.592 171.604 192.541C171.638 192.49 171.655 192.43 171.655 192.36C171.655 191.777 171.647 191.202 171.63 190.636C171.613 190.067 171.604 189.491 171.604 188.905V185.453C171.604 184.868 171.596 184.283 171.579 183.7C171.562 183.115 171.553 182.547 171.553 181.997V178.542C171.553 177.959 171.553 177.375 171.553 176.789C171.553 176.204 171.553 175.637 171.553 175.087Z" fill="#6CB40C"/>
<path d="M179.955 175.087V179.265C179.955 179.952 179.947 180.648 179.93 181.354C179.913 182.058 179.904 182.753 179.904 183.44V187.564C179.904 188.253 179.921 188.95 179.955 189.656C179.991 190.36 180.009 191.055 180.009 191.742C180.009 191.984 180.026 192.154 180.06 192.256C180.163 192.704 180.404 192.962 180.782 193.029C180.919 193.065 181.057 193.083 181.194 193.083C181.331 193.083 181.469 193.083 181.607 193.083C182.19 193.083 182.799 193.091 183.436 193.108C184.072 193.125 184.682 193.134 185.268 193.134C185.371 193.134 185.466 193.117 185.55 193.083C185.636 193.048 185.749 193.029 185.886 193.029C185.954 192.996 186.039 192.97 186.143 192.953C186.246 192.936 186.333 192.893 186.403 192.823C186.471 192.722 186.539 192.533 186.609 192.256C186.71 191.981 186.761 191.725 186.761 191.485C186.761 190.866 186.753 190.256 186.736 189.653C186.719 189.051 186.71 188.441 186.71 187.824C186.71 187.205 186.719 186.586 186.736 185.966C186.753 185.348 186.761 184.746 186.761 184.163V180.45C186.761 179.865 186.761 179.264 186.761 178.647C186.761 178.028 186.761 177.409 186.761 176.789C186.761 176.17 186.753 175.56 186.736 174.96C186.719 174.358 186.71 173.747 186.71 173.128C186.71 172.509 186.71 171.899 186.71 171.299C186.71 170.697 186.677 170.086 186.609 169.467V165.808C186.609 165.189 186.634 164.57 186.685 163.951C186.736 163.332 186.761 162.713 186.761 162.093C186.761 161.51 186.753 160.909 186.736 160.289C186.719 159.67 186.71 159.052 186.71 158.435V157.918C186.573 157.54 186.298 157.299 185.886 157.195C185.749 157.161 185.611 157.144 185.474 157.144C185.336 157.144 185.199 157.144 185.062 157.144C184.442 157.144 183.823 157.128 183.204 157.094C182.585 157.06 181.967 157.043 181.35 157.043C181.176 157.043 180.987 157.077 180.782 157.144C180.712 157.178 180.626 157.205 180.523 157.224C180.421 157.24 180.318 157.283 180.215 157.351C180.077 157.488 179.974 157.677 179.904 157.918V158.073C179.904 158.177 179.913 158.289 179.93 158.409C179.947 158.528 179.955 158.639 179.955 158.742V162.816C179.955 163.503 179.947 164.19 179.93 164.879C179.913 165.567 179.904 166.253 179.904 166.94V171.013C179.904 171.667 179.913 172.337 179.93 173.026C179.947 173.714 179.955 174.4 179.955 175.087Z" fill="#6CB40C"/>
<path d="M194.444 175.036V176.583C194.444 177.34 194.427 178.088 194.393 178.827C194.359 179.565 194.342 180.295 194.342 181.018C194.342 181.774 194.324 182.522 194.288 183.262C194.255 184 194.238 184.73 194.238 185.453C194.238 186.174 194.255 186.895 194.288 187.618C194.324 188.339 194.342 189.06 194.342 189.783C194.342 189.988 194.334 190.211 194.317 190.452C194.3 190.693 194.291 190.951 194.291 191.226C194.291 191.536 194.325 191.82 194.393 192.078C194.462 192.336 194.617 192.551 194.856 192.722C195.097 192.859 195.371 192.919 195.68 192.902C195.991 192.885 196.283 192.894 196.558 192.928C197.349 192.962 198.114 192.987 198.853 193.004C199.593 193.021 200.339 193.029 201.095 193.029C201.851 192.996 202.599 192.953 203.339 192.902C204.078 192.85 204.826 192.755 205.583 192.617C206.922 192.309 208.211 191.845 209.448 191.226C210.066 190.951 210.659 190.624 211.226 190.246C211.794 189.868 212.353 189.456 212.903 189.01C213.452 188.562 213.968 188.106 214.45 187.643C214.931 187.179 215.378 186.671 215.791 186.122C216.237 185.573 216.657 185.023 217.052 184.473C217.449 183.922 217.785 183.337 218.06 182.717C218.369 182.064 218.635 181.412 218.859 180.758C219.083 180.105 219.264 179.453 219.401 178.799C219.676 177.46 219.778 176.085 219.709 174.675C219.709 173.988 219.657 173.301 219.554 172.614C219.452 171.925 219.314 171.255 219.141 170.601C219.004 169.915 218.823 169.245 218.599 168.591C218.377 167.939 218.111 167.303 217.801 166.683C217.458 166.064 217.079 165.488 216.666 164.955C216.254 164.423 215.808 163.899 215.328 163.383C214.88 162.868 214.398 162.378 213.882 161.915C213.366 161.451 212.834 161.029 212.285 160.651C211.735 160.238 211.167 159.843 210.582 159.465C209.999 159.087 209.381 158.778 208.728 158.536C208.108 158.262 207.472 158.047 206.819 157.893C206.166 157.739 205.496 157.593 204.809 157.455C203.709 157.282 202.642 157.178 201.611 157.144C201.061 157.144 200.529 157.128 200.013 157.094C199.497 157.06 198.965 157.043 198.416 157.043C198.037 157.077 197.641 157.102 197.227 157.119C196.815 157.136 196.403 157.144 195.991 157.144C195.785 157.144 195.571 157.153 195.347 157.17C195.123 157.187 194.925 157.282 194.754 157.455C194.583 157.626 194.462 157.841 194.393 158.099C194.325 158.357 194.291 158.623 194.291 158.898V162.92C194.291 163.574 194.291 164.243 194.291 164.93C194.291 165.617 194.291 166.305 194.291 166.994C194.291 167.647 194.308 168.308 194.342 168.978C194.376 169.649 194.393 170.327 194.393 171.013C194.393 171.667 194.401 172.329 194.418 173.001C194.435 173.671 194.444 174.349 194.444 175.036ZM201.51 175.036V171.942C201.51 171.427 201.51 170.911 201.51 170.395C201.51 169.88 201.51 169.364 201.51 168.848C201.51 168.333 201.526 167.817 201.56 167.301C201.594 166.786 201.611 166.27 201.611 165.754C201.611 165.584 201.628 165.412 201.662 165.241C201.697 165.068 201.784 164.912 201.922 164.775C202.059 164.604 202.23 164.501 202.435 164.467C202.642 164.432 202.866 164.432 203.107 164.467C204.276 164.639 205.359 164.965 206.356 165.447C206.87 165.688 207.35 165.98 207.796 166.325C208.244 166.668 208.675 167.044 209.089 167.457C209.501 167.835 209.905 168.24 210.3 168.67C210.695 169.1 211.013 169.554 211.254 170.034C211.529 170.55 211.76 171.074 211.949 171.606C212.138 172.139 212.285 172.698 212.389 173.283C212.457 173.524 212.491 173.757 212.491 173.98C212.491 174.203 212.491 174.417 212.491 174.624C212.491 175.311 212.438 175.998 212.335 176.685C212.232 177.237 212.119 177.796 211.999 178.362C211.881 178.928 211.683 179.47 211.407 179.985C210.893 180.983 210.206 181.893 209.346 182.717C208.934 183.132 208.478 183.484 207.98 183.776C207.481 184.068 206.99 184.351 206.509 184.626C205.993 184.867 205.469 185.091 204.937 185.297C204.404 185.503 203.845 185.64 203.263 185.71H202.952C202.814 185.71 202.685 185.701 202.565 185.684C202.445 185.667 202.315 185.641 202.179 185.605C202.179 185.605 202.101 185.511 201.947 185.323C201.793 185.133 201.697 185.004 201.662 184.936C201.628 184.765 201.62 184.594 201.637 184.422C201.653 184.249 201.662 184.094 201.662 183.957V181.326C201.662 180.467 201.645 179.609 201.611 178.748C201.577 177.889 201.56 177.029 201.56 176.171C201.56 175.998 201.552 175.817 201.535 175.629C201.518 175.441 201.51 175.244 201.51 175.036Z" fill="#6CB40C"/>
<path d="M246.003 175.087V171.632C246.003 171.049 246.012 170.465 246.029 169.882C246.047 169.297 246.057 168.729 246.057 168.179C246.057 167.594 246.066 167.01 246.082 166.426C246.099 165.841 246.108 165.274 246.108 164.724V164.363C246.108 163.882 246.108 163.409 246.108 162.946C246.108 162.481 246.108 162.009 246.108 161.529C246.108 161.013 246.116 160.498 246.133 159.982C246.15 159.466 246.09 158.951 245.953 158.435C245.815 157.85 245.454 157.471 244.869 157.3C244.285 157.129 243.804 157.025 243.426 156.989H240.694C240.522 156.989 240.35 156.999 240.177 157.018C240.005 157.035 239.834 157.06 239.663 157.094C239.526 157.094 239.387 157.094 239.248 157.094C239.111 157.094 238.973 157.111 238.836 157.145C238.734 157.145 238.623 157.153 238.503 157.17C238.382 157.187 238.27 157.195 238.167 157.195C238.029 157.231 237.892 157.241 237.755 157.224C237.617 157.205 237.462 157.214 237.289 157.249C237.084 157.283 236.869 157.335 236.645 157.404C236.421 157.472 236.19 157.54 235.951 157.608C235.813 157.644 235.65 157.678 235.46 157.712C235.271 157.746 235.091 157.798 234.918 157.867C234.814 157.901 234.71 157.927 234.607 157.944C234.506 157.96 234.403 158.004 234.3 158.073C234.024 158.177 233.733 158.315 233.425 158.486C233.355 158.519 233.285 158.555 233.216 158.59C233.148 158.624 233.079 158.658 233.01 158.692C232.976 158.725 232.89 158.742 232.753 158.742L232.29 159.002C232.152 159.07 232.014 159.173 231.878 159.31C231.74 159.447 231.585 159.568 231.412 159.671C231.308 159.741 231.204 159.801 231.101 159.852C231 159.903 230.897 159.963 230.794 160.032C230.76 160.066 230.724 160.11 230.689 160.162C230.655 160.213 230.621 160.272 230.587 160.34C230.518 160.376 230.431 160.429 230.328 160.498C230.226 160.566 230.14 160.634 230.071 160.702C229.728 161.012 229.402 161.339 229.091 161.681L228.578 162.302C228.508 162.37 228.446 162.456 228.394 162.559C228.343 162.663 228.284 162.765 228.216 162.867C228.182 162.937 228.13 163.006 228.061 163.076C227.991 163.143 227.923 163.212 227.855 163.282C227.821 163.349 227.786 163.436 227.75 163.539C227.717 163.642 227.666 163.745 227.598 163.846C227.528 163.986 227.45 164.116 227.364 164.236C227.279 164.354 227.201 164.5 227.132 164.673C227.098 164.777 227.073 164.881 227.056 164.984C227.039 165.086 226.995 165.189 226.926 165.292C226.858 165.463 226.789 165.644 226.72 165.834C226.652 166.022 226.583 166.202 226.514 166.373C226.376 166.717 226.256 167.114 226.153 167.561C226.119 167.733 226.067 167.913 225.997 168.103C225.93 168.292 225.879 168.472 225.845 168.642C225.775 168.918 225.724 169.21 225.69 169.52C225.656 169.829 225.621 170.138 225.585 170.446C225.585 170.584 225.577 170.722 225.56 170.861C225.543 170.999 225.534 171.136 225.534 171.273C225.501 171.411 225.484 171.54 225.484 171.66C225.484 171.781 225.467 171.91 225.433 172.047V172.973C225.433 173.626 225.433 174.271 225.433 174.906C225.433 175.543 225.433 176.17 225.433 176.789C225.433 177.443 225.441 178.087 225.458 178.723C225.475 179.36 225.484 180.004 225.484 180.657C225.484 181.31 225.465 181.955 225.43 182.59C225.396 183.227 225.379 183.871 225.379 184.524V188.392C225.379 189.045 225.379 189.689 225.379 190.325C225.379 190.96 225.379 191.603 225.379 192.256C225.379 192.36 225.414 192.515 225.484 192.722C225.484 192.859 225.586 192.962 225.791 193.03C225.894 193.066 226.05 193.083 226.257 193.083C227.115 193.083 227.965 193.092 228.806 193.109C229.649 193.126 230.501 193.134 231.361 193.134C231.464 193.134 231.567 193.142 231.669 193.159C231.772 193.176 231.875 193.185 231.979 193.185C232.29 193.117 232.462 192.963 232.496 192.722C232.496 192.653 232.487 192.592 232.47 192.541C232.453 192.49 232.445 192.447 232.445 192.411C232.445 191.621 232.435 190.822 232.417 190.015C232.4 189.207 232.391 188.408 232.391 187.618C232.391 187.377 232.4 187.128 232.417 186.87C232.435 186.612 232.445 186.363 232.445 186.122C232.445 185.951 232.462 185.83 232.496 185.761C232.496 185.59 232.581 185.504 232.753 185.504C232.822 185.47 232.926 185.453 233.063 185.453C233.957 185.453 234.842 185.47 235.717 185.504C236.593 185.538 237.479 185.554 238.373 185.554H238.684C238.751 185.588 238.811 185.624 238.861 185.659C238.914 185.693 238.957 185.744 238.991 185.811C238.991 185.847 239 185.882 239.017 185.916C239.034 185.95 239.042 186.002 239.042 186.071C239.042 186.587 239.025 187.094 238.991 187.593C238.957 188.089 238.941 188.596 238.941 189.111C238.941 189.627 238.932 190.135 238.915 190.633C238.898 191.132 238.89 191.639 238.89 192.154C238.89 192.222 238.907 192.308 238.941 192.411C238.974 192.515 239.008 192.602 239.042 192.671C239.042 192.91 239.128 193.065 239.302 193.134C239.37 193.168 239.455 193.168 239.559 193.134C239.662 193.1 239.748 193.083 239.816 193.083C240.607 193.083 241.381 193.1 242.136 193.134C242.893 193.168 243.649 193.185 244.406 193.185C244.576 193.185 244.766 193.185 244.973 193.185C245.18 193.185 245.369 193.168 245.54 193.134H245.747C245.987 193.065 246.108 192.927 246.108 192.722C246.108 192.653 246.09 192.575 246.054 192.49C246.02 192.404 246.003 192.344 246.003 192.31C246.003 191.725 246.012 191.14 246.029 190.557C246.047 189.972 246.057 189.404 246.057 188.854C246.057 188.272 246.066 187.687 246.082 187.101C246.099 186.516 246.108 185.949 246.108 185.399V181.944C246.108 181.361 246.099 180.786 246.082 180.219C246.066 179.651 246.057 179.092 246.057 178.542C246.057 177.959 246.047 177.375 246.029 176.789C246.012 176.204 246.003 175.637 246.003 175.087ZM239.042 171.324V174.624C239.042 175.174 239.025 175.715 238.991 176.247C238.957 176.78 238.941 177.339 238.941 177.924L238.89 178.13C238.854 178.268 238.785 178.353 238.684 178.387C238.648 178.387 238.605 178.396 238.554 178.412C238.503 178.429 238.442 178.438 238.373 178.438C237.513 178.474 236.636 178.492 235.742 178.492C234.85 178.492 233.957 178.492 233.063 178.492C232.926 178.492 232.822 178.474 232.753 178.438C232.581 178.438 232.496 178.353 232.496 178.181C232.426 178.044 232.391 177.923 232.391 177.82V174.158C232.391 173.884 232.408 173.618 232.442 173.359C232.477 173.102 232.496 172.853 232.496 172.614V171.787C232.53 171.65 232.538 171.521 232.521 171.4C232.504 171.28 232.496 171.151 232.496 171.014C232.53 170.739 232.564 170.482 232.597 170.24C232.633 169.999 232.668 169.76 232.702 169.52C232.77 169.314 232.837 169.107 232.905 168.902C232.974 168.695 233.044 168.489 233.114 168.281C233.183 168.11 233.252 167.973 233.32 167.869C233.389 167.766 233.458 167.645 233.526 167.508C233.595 167.337 233.673 167.148 233.758 166.943C233.844 166.736 233.939 166.564 234.043 166.426C234.146 166.289 234.257 166.169 234.376 166.065C234.496 165.962 234.625 165.858 234.763 165.755C234.935 165.584 235.099 165.429 235.254 165.292C235.408 165.155 235.588 165.034 235.796 164.93C235.864 164.896 235.949 164.871 236.053 164.854C236.156 164.837 236.242 164.811 236.31 164.775C236.379 164.741 236.466 164.707 236.569 164.673C236.672 164.638 236.775 164.603 236.877 164.569C237.014 164.535 237.151 164.501 237.289 164.467C237.428 164.432 237.566 164.397 237.704 164.363C237.909 164.363 238.08 164.346 238.218 164.312C238.287 164.312 238.348 164.295 238.399 164.261C238.451 164.226 238.511 164.208 238.579 164.208C238.682 164.208 238.786 164.26 238.89 164.363C238.924 164.433 238.941 164.536 238.941 164.673V164.829C238.941 165.378 238.949 165.92 238.966 166.452C238.983 166.985 238.991 167.526 238.991 168.075C238.991 168.625 239 169.167 239.017 169.701C239.034 170.234 239.042 170.775 239.042 171.324Z" fill="#6CB40C"/>
</g>
<mask id="mask5_24_477" style="mask-type:luminance" maskUnits="userSpaceOnUse" x="56" y="203" width="159" height="23">
<path d="M214.131 203.23H56.228V225.452H214.131V203.23Z" fill="white"/>
</mask>
<g mask="url(#mask5_24_477)">
<path d="M62.4788 208.538C61.272 208.538 60.5366 208.701 60.2713 209.026C59.6573 209.774 59.351 211.388 59.351 213.87C59.351 215.05 59.4618 216.041 59.6841 216.843C59.9078 217.645 60.1676 218.191 60.4633 218.48C60.7582 218.77 61.2007 218.915 61.79 218.915C62.3807 218.915 62.9679 218.83 63.5515 218.661C64.1366 218.492 64.5861 218.324 64.9009 218.156L65.3892 217.902L65.9143 219.096C65.7915 219.179 65.625 219.281 65.4146 219.403C65.2036 219.524 64.7604 219.687 64.0851 219.892C63.4111 220.095 62.7308 220.197 62.0441 220.197C59.1513 220.197 57.7053 218.07 57.7053 213.817C57.7053 210.804 58.3319 208.839 59.5853 207.923C59.9819 207.633 60.4011 207.434 60.8415 207.327C61.2819 207.218 61.9509 207.163 62.8486 207.163C63.7463 207.163 64.5932 207.259 65.3892 207.451L65.2086 208.755C64.0999 208.611 63.1902 208.538 62.4788 208.538Z" fill="#DB6A92"/>
<path d="M70.07 219.962H68.5682V206.35H70.07V219.962Z" fill="#DB6A92"/>
<path d="M76.6674 205.464L77.1557 206.692L73.071 208.086L72.7097 207.18L76.6674 205.464ZM73.613 219.962V209.441H75.112V219.962H73.613Z" fill="#DB6A92"/>
<path d="M80.354 219.962H78.855V209.441H79.8656L80.0294 210.472H80.1197C81.5665 209.629 82.8198 209.207 83.8798 209.207C84.8319 209.207 85.4889 209.574 85.8502 210.308C86.1509 210.923 86.3019 211.81 86.3019 212.967V219.962H84.7832V213.489C84.7832 212.116 84.6957 211.297 84.5206 211.033C84.347 210.768 84.0189 210.635 83.5354 210.635C82.6208 210.635 81.5601 210.954 80.354 211.592V219.962Z" fill="#DB6A92"/>
<path d="M91.308 219.962H89.8091V209.441H91.308V219.962ZM91.4887 207.886H89.6453V206.35H91.4887V207.886Z" fill="#DB6A92"/>
<path d="M98.7379 210.525C97.8233 210.525 97.2086 210.683 96.8946 210.997C96.6532 211.262 96.4542 211.736 96.2961 212.417C96.1394 213.096 96.0618 213.882 96.0618 214.774C96.0618 216.799 96.4471 218.077 97.2192 218.607C97.4846 218.799 97.8374 218.895 98.2778 218.895C98.7182 218.895 99.1938 218.827 99.7062 218.689C100.218 218.55 100.775 218.342 101.377 218.065L101.849 219.24C101.751 219.312 101.614 219.402 101.439 219.511C101.266 219.62 100.899 219.762 100.339 219.937C99.7775 220.11 99.2136 220.197 98.6476 220.197C97.3469 220.197 96.3286 219.748 95.5932 218.85C94.8571 217.952 94.4894 216.531 94.4894 214.585C94.4894 212.639 94.8931 211.256 95.7005 210.438C96.5078 209.618 97.6172 209.207 99.0287 209.207C99.9433 209.207 100.799 209.303 101.595 209.495L101.414 210.76C100.111 210.604 99.2192 210.525 98.7379 210.525Z" fill="#DB6A92"/>
<path d="M107.723 213.489H109.64C109.64 212.08 109.533 211.231 109.321 210.943C109.11 210.654 108.721 210.508 108.155 210.508C107.588 210.508 106.989 210.584 106.357 210.734C105.724 210.885 105.047 211.111 104.324 211.412L103.799 210.237C103.955 210.164 104.163 210.071 104.423 209.958C104.683 209.844 105.167 209.69 105.877 209.498C106.588 209.304 107.239 209.207 107.83 209.207C110.036 209.207 111.139 210.484 111.139 213.038V219.962H110.162L109.945 218.859H109.837C109.717 218.957 109.547 219.081 109.329 219.231C109.113 219.382 108.703 219.581 108.101 219.827C107.499 220.073 106.933 220.197 106.402 220.197C105.547 220.197 104.861 219.905 104.341 219.322C103.823 218.736 103.565 217.875 103.565 216.736C103.565 215.597 103.919 214.772 104.629 214.26C105.341 213.746 106.372 213.489 107.723 213.489ZM109.64 214.881C109.12 214.799 108.387 214.757 107.441 214.757C106.496 214.757 105.891 214.871 105.626 215.098C105.3 215.353 105.137 215.886 105.137 216.699C105.137 217.512 105.254 218.076 105.49 218.39C105.725 218.703 106.081 218.859 106.557 218.859C107.033 218.859 107.518 218.778 108.011 218.616C108.506 218.452 109.048 218.209 109.64 217.885V214.881Z" fill="#DB6A92"/>
<path d="M125.798 206.35V219.962H124.804L124.606 218.878H124.496C124.4 218.974 124.262 219.095 124.081 219.24C123.901 219.385 123.548 219.581 123.023 219.827C122.499 220.073 121.997 220.197 121.515 220.197C120.489 220.197 119.678 219.755 119.082 218.87C118.485 217.983 118.187 216.661 118.187 214.901C118.187 211.105 119.435 209.207 121.93 209.207C122.568 209.207 123.357 209.333 124.299 209.585V206.35H125.798ZM124.299 211.031C123.527 210.707 122.746 210.545 121.956 210.545C121.167 210.545 120.652 210.689 120.412 210.977C119.977 211.544 119.759 212.854 119.759 214.909C119.759 216.964 120.031 218.203 120.575 218.624C120.731 218.77 121.035 218.842 121.487 218.842C121.939 218.842 122.39 218.764 122.842 218.607C123.294 218.449 123.779 218.214 124.299 217.902V211.031Z" fill="#DB6A92"/>
<path d="M132.884 220.197C130.087 220.197 128.689 218.366 128.689 214.703C128.689 211.039 130.075 209.207 132.847 209.207C134.076 209.207 134.998 209.59 135.614 210.356C136.229 211.12 136.537 212.388 136.537 214.158V215.279H130.281C130.281 216.907 130.54 217.962 131.058 218.444C131.383 218.734 131.829 218.878 132.396 218.878C133.408 218.878 134.403 218.709 135.38 218.37L135.868 218.19L136.246 219.42C135.233 219.938 134.113 220.197 132.884 220.197ZM134.583 211.05C134.342 210.689 133.751 210.508 132.811 210.508C131.871 210.508 131.214 210.756 130.84 211.251C130.468 211.744 130.281 212.69 130.281 214.088L134.998 213.998C134.998 212.49 134.86 211.508 134.583 211.05Z" fill="#DB6A92"/>
<path d="M143.674 207.398H145.791L150.816 218.534H150.906L150.635 207.398H152.117V219.962H150.003L144.995 208.826H144.922L145.159 219.962H143.674V207.398Z" fill="#DB6A92"/>
<path d="M161.535 209.441H163.036V219.962H162.023L161.842 218.949H161.752C161.741 218.949 161.557 219.049 161.202 219.248C160.846 219.448 160.553 219.601 160.324 219.708C159.588 220.034 158.895 220.197 158.246 220.197C156.486 220.197 155.607 218.943 155.607 216.436V209.441H157.105V215.914C157.105 217.3 157.186 218.127 157.348 218.398C157.512 218.669 157.904 218.805 158.525 218.805C159.146 218.805 160.149 218.486 161.535 217.848V209.441Z" fill="#DB6A92"/>
<path d="M168.366 210.057H170.464V211.268H168.366V216.727C168.366 217.74 168.417 218.349 168.519 218.554C168.622 218.757 168.939 218.859 169.47 218.859L170.447 218.825V220.036C170.193 220.096 169.855 220.126 169.433 220.126C168.565 220.126 167.921 219.888 167.5 219.412C167.077 218.936 166.867 218.005 166.867 216.617V211.231H165.673V210.291L166.921 210.037L167.319 207.578H168.366V210.057Z" fill="#DB6A92"/>
<path d="M178.093 210.743C177.815 210.719 177.515 210.706 177.196 210.706C176.877 210.706 176.465 210.803 175.959 210.997C175.453 211.189 175.054 211.4 174.765 211.629V219.962H173.266V209.441H174.223L174.424 210.508H174.531C175.026 210.147 175.55 209.841 176.103 209.588C176.658 209.334 177.117 209.207 177.478 209.207L178.22 209.297L178.093 210.743Z" fill="#DB6A92"/>
<path d="M181.996 219.962H180.497V209.441H181.996V219.962ZM182.176 207.886H180.333V206.35H182.176V207.886Z" fill="#DB6A92"/>
<path d="M189.425 210.525C188.511 210.525 187.896 210.683 187.582 210.997C187.341 211.262 187.142 211.736 186.983 212.417C186.827 213.096 186.749 213.882 186.749 214.774C186.749 216.799 187.135 218.077 187.907 218.607C188.172 218.799 188.525 218.895 188.965 218.895C189.406 218.895 189.881 218.827 190.394 218.689C190.905 218.55 191.462 218.342 192.065 218.065L192.536 219.24C192.029 219.612 191.366 219.883 190.546 220.053C190.715 220.534 190.8 221.016 190.8 221.498C190.8 221.981 190.615 222.385 190.247 222.709C189.88 223.034 189.407 223.197 188.83 223.197C188.492 223.197 188.052 223.144 187.509 223.036V221.916C188.039 221.976 188.461 222.006 188.773 222.006C189.087 222.006 189.31 221.969 189.442 221.896C189.576 221.824 189.643 221.619 189.643 221.281C189.643 220.943 189.595 220.582 189.499 220.197H189.335C188.034 220.197 187.016 219.748 186.281 218.85C185.545 217.952 185.177 216.531 185.177 214.585C185.177 212.639 185.58 211.256 186.388 210.438C187.195 209.618 188.305 209.207 189.716 209.207C190.631 209.207 191.486 209.303 192.282 209.495L192.101 210.76C190.799 210.604 189.907 210.525 189.425 210.525Z" fill="#DB6A92"/>
<path d="M200.327 213.489C200.327 212.08 200.221 211.231 200.008 210.943C199.797 210.654 199.403 210.508 198.825 210.508C197.583 210.508 196.312 210.81 195.012 211.412L194.487 210.237L195.048 209.983C195.421 209.814 195.944 209.643 196.618 209.47C197.293 209.295 197.926 209.207 198.518 209.207C200.723 209.207 201.826 210.484 201.826 213.038V219.962H200.849L200.632 218.859H200.525L200.073 219.203C199.758 219.42 199.315 219.64 198.744 219.864C198.171 220.085 197.62 220.197 197.089 220.197C196.235 220.197 195.548 219.905 195.029 219.322C194.511 218.736 194.252 217.875 194.252 216.736C194.252 215.597 194.607 214.772 195.316 214.26C196.028 213.746 197.059 213.489 198.41 213.489H200.327ZM197.343 218.859C198.259 218.859 199.254 218.534 200.327 217.885V214.881C199.627 214.799 198.981 214.757 198.391 214.757C197.271 214.757 196.578 214.871 196.313 215.098C195.987 215.353 195.825 215.886 195.825 216.699C195.825 217.512 195.942 218.076 196.177 218.39C196.412 218.703 196.801 218.859 197.343 218.859ZM194.811 207.759C194.811 206.541 195.221 205.932 196.042 205.932C196.415 205.932 197.085 206.078 198.055 206.367C199.026 206.657 199.554 206.802 199.638 206.802C199.783 206.802 199.94 206.531 200.11 205.989L201.067 206.116C201.067 206.765 200.958 207.232 200.742 207.516C200.525 207.798 200.233 207.94 199.864 207.94C199.497 207.94 198.82 207.789 197.832 207.488C196.844 207.187 196.313 207.036 196.24 207.036C196.108 207.036 195.945 207.314 195.751 207.869L194.811 207.759Z" fill="#DB6A92"/>
<path d="M204.807 214.712C204.807 212.909 205.105 211.541 205.702 210.607C206.299 209.674 207.311 209.207 208.74 209.207C210.168 209.207 211.183 209.674 211.786 210.607C212.388 211.541 212.689 212.906 212.689 214.703C212.689 216.499 212.388 217.864 211.786 218.796C211.183 219.73 210.168 220.197 208.74 220.197C207.311 220.197 206.299 219.733 205.702 218.805C205.105 217.878 204.807 216.513 204.807 214.712ZM210.205 210.816C209.884 210.611 209.399 210.508 208.748 210.508C208.099 210.508 207.614 210.611 207.294 210.816C206.974 211.019 206.733 211.419 206.569 212.016C206.406 212.613 206.326 213.508 206.326 214.7C206.326 215.894 206.404 216.792 206.56 217.396C206.718 217.999 206.96 218.403 207.286 218.607C207.611 218.813 208.099 218.915 208.748 218.915C209.399 218.915 209.884 218.813 210.205 218.607C210.524 218.403 210.762 217.999 210.919 217.396C211.075 216.792 211.153 215.894 211.153 214.7C211.153 213.508 211.075 212.613 210.919 212.016C210.762 211.419 210.524 211.019 210.205 210.816Z" fill="#DB6A92"/>
</g>
</svg>
