<svg width="676" height="188" viewBox="0 0 676 188" fill="none" xmlns="http://www.w3.org/2000/svg">
<path d="M53.0588 63.0768L62.9595 84.8714C75.061 58.9046 48.4152 50.6659 48.4152 50.6659L48.4389 50.726C47.9274 51.5669 34.255 74.4901 59.6884 85.9982L53.0588 63.0768Z" fill="#6CB40C"/>
<path d="M36.8745 89.6843L54.9356 92.8972C37.9557 106.812 26.7754 88.5939 26.7754 88.5939L26.8264 88.6012C27.3506 88.0624 41.7748 73.5545 55.1504 90.2541L36.8745 89.6843Z" fill="#6CB40C"/>
<path d="M68.8282 94.3316C68.8282 96.9018 66.7475 98.9843 64.1773 98.9843C61.6088 98.9843 59.5264 96.9018 59.5264 94.3316C59.5264 91.7631 61.6088 89.6807 64.1773 89.6807C66.7475 89.6807 68.8282 91.7631 68.8282 94.3316Z" fill="#6CB40C"/>
<mask id="mask0_24_476" style="mask-type:luminance" maskUnits="userSpaceOnUse" x="23" y="73" width="10" height="10">
<path d="M23 73.134H32.5111V82.92H23V73.134Z" fill="white"/>
</mask>
<g mask="url(#mask0_24_476)">
<path d="M27.6454 82.667C25.0752 82.667 22.9927 80.5828 22.9927 78.0161C22.9927 75.4477 25.0752 73.3634 27.6454 73.3634C30.2139 73.3634 32.2963 75.4477 32.2963 78.0161C32.2963 80.5828 30.2139 82.667 27.6454 82.667Z" fill="#6CB40C"/>
</g>
<path d="M72.7036 58.8974C74.0925 60.2844 74.0925 62.538 72.7036 63.9251C71.3147 65.3158 69.063 65.3158 67.6741 63.9251C66.2852 62.538 66.2852 60.2844 67.6741 58.8974C69.063 57.5103 71.3147 57.5103 72.7036 58.8974Z" fill="#6CB40C"/>
<path d="M42.2316 73.1395C42.8851 73.7948 42.8851 74.8543 42.2316 75.5096C41.5763 76.1631 40.5169 76.1631 39.8616 75.5096C39.2081 74.8543 39.2081 73.7948 39.8616 73.1395C40.5169 72.486 41.5763 72.486 42.2316 73.1395Z" fill="#6CB40C"/>
<path d="M32.5403 99.9709C33.7526 99.9709 34.7356 100.952 34.7356 102.164C34.7356 103.377 33.7526 104.36 32.5403 104.36C31.3298 104.36 30.3468 103.377 30.3468 102.164C30.3468 100.952 31.3298 99.9709 32.5403 99.9709Z" fill="#6CB40C"/>
<path d="M233.454 63.0769L223.553 84.8715C211.451 58.9047 238.095 50.6642 238.095 50.6642L238.074 50.7261C238.585 51.5652 252.257 74.4903 226.822 85.9964L233.454 63.0769Z" fill="#6CB40C"/>
<path d="M249.638 89.6844L231.577 92.8954C248.559 106.812 259.735 88.594 259.735 88.594L259.686 88.5995C259.16 88.0607 244.736 73.5546 231.362 90.2541L249.638 89.6844Z" fill="#6CB40C"/>
<path d="M217.682 94.3316C217.682 96.9018 219.767 98.9843 222.333 98.9843C224.902 98.9843 226.986 96.9018 226.986 94.3316C226.986 91.7631 224.902 89.6807 222.333 89.6807C219.767 89.6807 217.682 91.7631 217.682 94.3316Z" fill="#6CB40C"/>
<mask id="mask1_24_476" style="mask-type:luminance" maskUnits="userSpaceOnUse" x="253" y="73" width="11" height="10">
<path d="M253.861 73.134H263.456V82.92H253.861V73.134Z" fill="white"/>
</mask>
<g mask="url(#mask1_24_476)">
<path d="M258.865 82.667C261.434 82.667 263.516 80.5846 263.516 78.0161C263.516 75.4477 261.434 73.3634 258.865 73.3634C256.298 73.3634 254.214 75.4477 254.214 78.0161C254.214 80.5846 256.298 82.667 258.865 82.667Z" fill="#6CB40C"/>
</g>
<path d="M213.809 58.8974C212.418 60.2844 212.418 62.538 213.809 63.9251C215.196 65.3158 217.449 65.3158 218.838 63.9251C220.225 62.538 220.225 60.2844 218.838 58.8974C217.449 57.5103 215.196 57.5103 213.809 58.8974Z" fill="#6CB40C"/>
<path d="M244.281 73.1414C243.625 73.7949 243.625 74.8561 244.281 75.5096C244.934 76.1649 245.996 76.1649 246.649 75.5096C247.304 74.8561 247.304 73.7949 246.649 73.1414C245.996 72.4879 244.934 72.4879 244.281 73.1414Z" fill="#6CB40C"/>
<path d="M253.97 99.9709C252.758 99.9709 251.775 100.952 251.775 102.164C251.775 103.377 252.758 104.36 253.97 104.36C255.183 104.36 256.166 103.377 256.166 102.164C256.166 100.952 255.183 99.9709 253.97 99.9709Z" fill="#6CB40C"/>
<mask id="mask2_24_476" style="mask-type:luminance" maskUnits="userSpaceOnUse" x="101" y="35" width="34" height="98">
<path d="M101.945 35.7539H134.099V132.782H101.945V35.7539Z" fill="white"/>
</mask>
<g mask="url(#mask2_24_476)">
<path d="M114.079 108.96L112.905 128.08C116.296 129.813 119.842 131.258 123.51 132.389L122.07 108.96C121.583 101.018 124.111 93.0555 129.556 87.2524C132.193 84.4418 133.808 80.661 133.808 76.5016V35.7958H129.312V70.7585C129.312 72 128.307 73.0048 127.065 73.0048C125.824 73.0048 124.817 72 124.817 70.7585V35.7958H120.323V70.7585C120.323 72 119.316 73.0048 118.075 73.0048C116.833 73.0048 115.827 72 115.827 70.7585V35.7958H111.332V70.7585C111.332 72 110.326 73.0048 109.084 73.0048C107.843 73.0048 106.836 72 106.836 70.7585V35.7958H102.342V76.5016C102.342 80.661 103.958 84.4418 106.594 87.2524C112.039 93.0555 114.567 101.018 114.079 108.96Z" fill="#DB6A92"/>
</g>
<mask id="mask3_24_476" style="mask-type:luminance" maskUnits="userSpaceOnUse" x="146" y="35" width="39" height="99">
<path d="M146.681 35.7539H184.427V133.248H146.681V35.7539Z" fill="white"/>
</mask>
<g mask="url(#mask3_24_476)">
<path d="M161.557 108.479L160.039 133.224C163.737 132.272 167.331 131.011 170.778 129.451L169.49 108.479C169.029 100.972 171.465 93.527 176.469 87.9131C181.134 82.6797 184.169 74.1862 184.169 64.5986C184.169 48.6909 175.821 35.7958 165.523 35.7958C155.226 35.7958 146.878 48.6909 146.878 64.5986C146.878 74.1862 149.912 82.6797 154.578 87.9131C159.584 93.527 162.019 100.972 161.557 108.479Z" fill="#DB6A92"/>
</g>
<mask id="mask4_24_476" style="mask-type:luminance" maskUnits="userSpaceOnUse" x="65" y="104" width="156" height="57">
<path d="M65.5972 104.356H220.775V160.525H65.5972V104.356Z" fill="white"/>
</mask>
<g mask="url(#mask4_24_476)">
<path d="M215.105 105.67C215.043 105.639 214.983 105.608 214.919 105.578C210.363 103.257 204.742 104.636 201.893 108.885C188.024 129.571 165.64 139.912 143.255 139.912C120.873 139.912 98.4884 129.571 84.6194 108.885C81.7706 104.636 76.1477 103.257 71.5915 105.578C71.5296 105.608 71.4695 105.639 71.4076 105.67C65.9885 108.434 64.1446 115.318 67.5267 120.373C85.4222 147.123 114.34 160.498 143.255 160.498C172.173 160.498 201.09 147.123 218.986 120.373C222.368 115.318 220.524 108.434 215.105 105.67Z" fill="#DB6A92"/>
</g>
<mask id="mask5_24_476" style="mask-type:luminance" maskUnits="userSpaceOnUse" x="285" y="27" width="368" height="99">
<path d="M652.291 27H285.549V125.792H652.291V27Z" fill="white"/>
</mask>
<g mask="url(#mask5_24_476)">
<path d="M301.024 108.686V108.847C301.129 108.847 301.266 108.847 301.431 108.847C301.595 108.847 301.732 108.819 301.839 108.766C302.058 108.766 302.221 108.632 302.334 108.359C302.387 108.3 302.387 108.233 302.334 108.155C302.28 108.073 302.254 108.002 302.254 107.944V101.631C302.254 100.704 302.28 99.7632 302.334 98.8057C302.387 97.8445 302.414 96.9271 302.414 96.0534V90.3958C302.414 89.4693 302.414 88.5282 302.414 87.5707C302.414 86.6096 302.414 85.6921 302.414 84.8184C302.414 83.8918 302.4 82.9507 302.371 81.9933C302.345 81.0376 302.334 80.0929 302.334 79.1609C302.334 78.2343 302.345 77.2932 302.371 76.3357C302.4 75.3746 302.414 74.4572 302.414 73.5834C302.414 72.6569 302.4 71.7158 302.371 70.7583C302.345 69.7972 302.334 68.8542 302.334 67.9259V67.5982C302.334 67.2688 302.345 66.9557 302.371 66.6589C302.4 66.3586 302.414 66.0692 302.414 65.7925C302.467 65.6869 302.467 65.5795 302.414 65.4721C302.36 65.3611 302.36 65.2755 302.414 65.2173C302.467 65.0571 302.686 64.977 303.07 64.977V64.8896C303.341 64.8896 303.507 64.9187 303.565 64.977C303.618 64.977 303.645 64.9915 303.645 65.0207C303.645 65.0461 303.67 65.0571 303.725 65.0571C304.055 65.2755 304.302 65.412 304.468 65.4648C304.739 65.6833 304.996 65.8762 305.24 66.04C305.487 66.2057 305.72 66.3968 305.939 66.6153C306.215 66.8337 306.434 67.0412 306.594 67.2342C306.758 67.4235 306.923 67.5982 307.089 67.7584L307.337 68.006C307.442 68.0642 307.537 68.1079 307.621 68.137C307.702 68.1625 307.77 68.2281 307.824 68.3336C308.101 68.6103 308.36 68.9416 308.603 69.3239C308.851 69.7025 309.084 70.0302 309.302 70.3069L309.47 70.467C309.523 70.5217 309.561 70.5471 309.586 70.5471C309.616 70.5471 309.63 70.5471 309.63 70.5471C309.741 70.66 309.798 70.7419 309.798 70.7947L310.533 72.0252C310.644 72.1909 310.739 72.3565 310.817 72.5204C310.899 72.686 310.97 72.848 311.028 73.0082C311.081 73.0664 311.108 73.1502 311.108 73.2558C311.438 73.9111 311.765 74.57 312.091 75.229C312.421 75.8843 312.696 76.5669 312.914 77.275C312.967 77.3879 312.98 77.5262 312.95 77.69C312.925 77.8502 312.939 78.0395 312.994 78.258C313.047 78.3126 313.1 78.3526 313.154 78.3818C313.213 78.4109 313.242 78.4801 313.242 78.5856C313.347 78.8041 313.455 79.0516 313.562 79.3283C313.673 79.6014 313.759 79.8726 313.817 80.1438C313.922 80.6936 314.03 81.2415 314.137 81.7894C314.248 82.3337 314.33 82.8798 314.385 83.4277V83.5078C314.496 84.2759 314.647 85.0423 314.836 85.8086C315.029 86.5713 315.153 87.3359 315.208 88.1022C315.26 88.1568 315.273 88.2388 315.244 88.3498C315.219 88.4572 315.208 88.5664 315.208 88.6774C315.479 90.9747 315.655 93.2701 315.739 95.5655C315.821 97.8627 315.888 100.158 315.943 102.454C315.943 102.619 315.888 102.81 315.783 103.029H315.863C315.863 103.029 315.874 103.043 315.899 103.072C315.928 103.098 315.943 103.109 315.943 103.109L315.863 103.189C315.863 103.244 315.863 103.284 315.863 103.313C315.863 103.342 315.863 103.411 315.863 103.517C315.863 103.682 315.888 103.862 315.943 104.055C316.001 104.245 316.03 104.449 316.03 104.667V105.65C316.03 105.705 316.001 105.772 315.943 105.854C315.888 105.938 315.863 106.034 315.863 106.145C315.863 106.471 315.888 106.784 315.943 107.084C316.001 107.387 316.056 107.702 316.11 108.031C316.11 108.086 316.081 108.138 316.023 108.191C315.968 108.246 315.943 108.3 315.943 108.359C316.001 108.577 316.192 108.686 316.518 108.686C316.629 108.686 316.726 108.701 316.809 108.73C316.891 108.755 316.959 108.766 317.013 108.766C317.887 108.766 318.746 108.755 319.591 108.73C320.439 108.701 321.275 108.686 322.096 108.686C322.696 108.686 323.284 108.701 323.858 108.73C324.435 108.755 324.995 108.766 325.54 108.766L326.115 108.847C326.444 108.741 326.663 108.522 326.77 108.191C326.77 108.138 326.756 108.058 326.727 107.951C326.701 107.84 326.69 107.758 326.69 107.703C326.69 106.666 326.701 105.641 326.727 104.631C326.756 103.617 326.77 102.59 326.77 101.551C326.77 100.513 326.743 99.4737 326.69 98.4343C326.636 97.3967 326.61 96.3573 326.61 95.318C326.61 94.2804 326.621 93.2555 326.646 92.2453C326.676 91.2313 326.69 90.2047 326.69 89.1653C326.69 86.7042 326.701 84.2468 326.727 81.7894C326.756 79.3283 326.77 76.8673 326.77 74.4062C326.77 73.4742 326.756 72.7898 326.727 72.3529C326.701 71.916 326.676 71.4682 326.646 71.0059C326.621 70.5399 326.61 69.8409 326.61 68.9089C326.61 67.9823 326.621 67.2997 326.646 66.8628C326.676 66.4259 326.69 65.9745 326.69 65.5085C326.69 65.0425 326.69 64.3726 326.69 63.4989V58.0816C326.69 57.1551 326.701 56.4725 326.727 56.0356C326.756 55.5987 326.77 55.1473 326.77 54.6813C326.77 54.2153 326.77 53.5454 326.77 52.6717C326.77 52.5661 326.743 52.4714 326.69 52.3877C326.636 52.3058 326.61 52.2384 326.61 52.1838C326.61 51.9617 326.581 51.7961 326.523 51.6887C326.523 51.6887 326.468 51.6341 326.362 51.5212C326.308 51.4684 326.241 51.4156 326.159 51.361C326.075 51.3082 325.978 51.2809 325.867 51.2809H321.113C320.403 51.2809 319.68 51.2955 318.943 51.3246C318.204 51.3501 317.479 51.361 316.766 51.361C316.711 51.361 316.657 51.3501 316.598 51.3246C316.544 51.2955 316.464 51.2809 316.358 51.2809C316.14 51.3883 316.03 51.5504 316.03 51.7688C315.972 51.8234 315.958 51.8907 315.987 51.9727C316.016 52.0564 316.03 52.1256 316.03 52.1838V52.4241C316.03 52.4241 316.041 52.4241 316.067 52.4241C316.096 52.4241 316.11 52.4241 316.11 52.4241V52.5115C316.11 52.5661 316.096 52.6061 316.067 52.6353C316.041 52.6607 316.03 52.699 316.03 52.7518C316.03 53.0831 316.016 53.398 315.987 53.6983C315.958 54.0005 315.943 54.3136 315.943 54.6376C315.943 55.1873 315.943 55.7498 315.943 56.3269C315.943 56.9003 315.916 57.4846 315.863 58.0816C315.863 58.1399 315.874 58.2109 315.899 58.2928C315.928 58.3765 315.943 58.4439 315.943 58.4967C315.836 58.8808 315.646 59.0719 315.375 59.0719C315.157 59.0719 314.991 59.0173 314.88 58.9044C314.825 58.8516 314.785 58.7988 314.756 58.7442C314.731 58.686 314.663 58.6314 314.552 58.5768C314.168 58.0871 313.759 57.6775 313.322 57.3462L313.074 57.0987C312.967 56.9931 312.858 56.8984 312.747 56.8147C312.639 56.7328 312.53 56.6654 312.419 56.6108L310.941 55.5405C310.722 55.3803 310.462 55.191 310.162 54.9725C309.86 54.7505 309.574 54.6121 309.302 54.5575C309.084 54.5575 308.948 54.532 308.895 54.4774L308.647 54.2299C308.593 54.1243 308.525 54.0551 308.443 54.026C308.36 53.9969 308.263 53.9568 308.152 53.9022C306.841 53.3543 305.474 52.9174 304.053 52.5916C303.179 52.3203 302.343 52.1165 301.548 51.9799C300.756 51.8398 299.924 51.7433 299.05 51.6887C298.996 51.6887 298.929 51.6632 298.847 51.6086C298.763 51.5504 298.668 51.4957 298.563 51.4411C297.849 51.3883 297.081 51.3756 296.262 51.4047C295.441 51.4302 294.649 51.4411 293.888 51.4411C293.722 51.4411 293.542 51.4156 293.349 51.361C293.16 51.3082 292.982 51.2809 292.818 51.2809H292.33C292.272 51.2809 292.228 51.2955 292.199 51.3246C292.173 51.3501 292.108 51.361 292.002 51.361C291.837 51.4684 291.698 51.605 291.587 51.7688C291.587 51.8234 291.602 51.8907 291.631 51.9727C291.66 52.0564 291.675 52.1529 291.675 52.2639C291.675 52.2639 291.645 52.2785 291.587 52.3076C291.533 52.3331 291.507 52.3713 291.507 52.4241C291.507 52.4824 291.518 52.526 291.544 52.5552C291.573 52.5806 291.587 52.6189 291.587 52.6717C291.587 52.6717 291.587 52.7554 291.587 52.9192V58.9845C291.587 59.9711 291.587 60.9705 291.587 61.9844C291.587 62.9947 291.587 63.9922 291.587 64.977C291.587 66.0164 291.573 67.0285 291.544 68.0133C291.518 68.9944 291.507 70.0047 291.507 71.0423V77.0274C291.507 78.0668 291.533 79.0789 291.587 80.0637C291.645 81.0503 291.675 82.0624 291.675 83.1V89.0852C291.675 90.1246 291.675 91.1367 291.675 92.1215C291.675 93.1026 291.675 94.1129 291.675 95.1505C291.675 96.1371 291.66 97.1364 291.631 98.1504C291.602 99.1606 291.587 100.158 291.587 101.143C291.587 102.182 291.573 103.194 291.544 104.179C291.518 105.16 291.507 106.171 291.507 107.208L291.587 107.536C291.587 107.536 291.587 107.55 291.587 107.58C291.587 107.605 291.587 107.645 291.587 107.703L291.507 107.783C291.507 107.783 291.533 107.783 291.587 107.783C291.645 107.783 291.675 107.811 291.675 107.864C291.675 107.864 291.66 107.878 291.631 107.907C291.602 107.933 291.587 107.973 291.587 108.031L291.507 108.111C291.56 108.166 291.587 108.248 291.587 108.359C291.645 108.519 291.809 108.599 292.082 108.599C292.188 108.657 292.297 108.714 292.41 108.766C292.521 108.819 292.603 108.847 292.658 108.847C293.531 108.847 294.378 108.832 295.199 108.803C296.018 108.777 296.866 108.766 297.74 108.766C298.341 108.766 298.901 108.755 299.422 108.73C299.941 108.701 300.474 108.686 301.024 108.686Z" fill="#6CB40C"/>
<path d="M371.053 72.9281C371.053 71.7831 371.064 70.6345 371.089 69.4841C371.119 68.3336 371.133 67.1868 371.133 66.04C371.133 64.9479 371.148 63.8302 371.177 62.6834C371.206 61.5329 371.221 60.3825 371.221 59.2321C371.221 58.0871 371.191 56.9421 371.133 55.7953C371.079 54.6449 371.053 53.5217 371.053 52.4241C371.053 52.3713 371.079 52.3185 371.133 52.2639C371.191 52.2111 371.221 52.1547 371.221 52.0964L371.053 51.6887C371.053 51.4703 370.969 51.361 370.806 51.361C370.698 51.3082 370.562 51.2809 370.398 51.2809C369.688 51.2809 368.951 51.3082 368.184 51.361C367.416 51.4156 366.65 51.4411 365.883 51.4411C365.121 51.4411 364.356 51.4156 363.59 51.361C362.822 51.3082 362.057 51.2809 361.296 51.2809C361.296 51.2809 361.282 51.3082 361.253 51.361C361.223 51.4156 361.182 51.4411 361.129 51.4411C360.803 51.4411 360.612 51.5777 360.554 51.8489C360.499 51.9071 360.499 51.9781 360.554 52.06C360.612 52.1438 360.641 52.2384 360.641 52.344C360.641 53.3306 360.626 54.3008 360.597 55.2565C360.568 56.214 360.554 57.1551 360.554 58.0816C360.554 59.0682 360.539 60.0385 360.51 60.9941C360.484 61.9516 360.473 62.8945 360.473 63.8265C360.473 64.8131 360.499 65.7834 360.554 66.739C360.612 67.6965 360.641 68.6376 360.641 69.5642C360.641 70.5508 360.612 71.521 360.554 72.4767C360.499 73.4341 360.473 74.3771 360.473 75.3091V81.0467C360.473 82.0333 360.484 83.0035 360.51 83.9592C360.539 84.9167 360.554 85.8596 360.554 86.7916C360.554 87.7727 360.526 88.7412 360.473 89.6968C360.419 90.6543 360.393 91.6245 360.393 92.6093C360.393 92.6639 360.433 92.7313 360.517 92.8132C360.599 92.8969 360.641 92.9934 360.641 93.1044V93.352C360.641 93.352 360.641 93.3666 360.641 93.3957C360.641 93.4212 360.641 93.4594 360.641 93.5122C360.641 93.6251 360.626 93.7488 360.597 93.8835C360.568 94.0201 360.554 94.142 360.554 94.2476C360.554 94.4132 360.526 94.5789 360.473 94.7427C360.419 94.9084 360.337 95.074 360.226 95.2379C360.171 95.6165 360.009 96.0279 359.738 96.4684C359.68 96.523 359.609 96.5903 359.527 96.6723C359.449 96.756 359.354 96.8506 359.243 96.9562C359.024 97.1747 358.832 97.3403 358.668 97.4514C358.231 97.8354 357.685 98.1067 357.029 98.2668C356.756 98.3251 356.483 98.3961 356.207 98.478C355.934 98.5563 355.662 98.5945 355.391 98.5945C355.06 98.5945 354.732 98.5144 354.408 98.3542C354.19 98.296 353.957 98.2141 353.709 98.1067C353.462 97.9956 353.229 97.8864 353.01 97.779C352.466 97.3967 352.056 97.04 351.78 96.7087C351.672 96.5485 351.563 96.401 351.452 96.2645C351.345 96.1243 351.235 95.9714 351.124 95.8058C351.07 95.5873 351.002 95.3835 350.92 95.1942C350.837 95.0048 350.769 94.801 350.717 94.5825C350.662 94.4715 350.636 94.3332 350.636 94.1675C350.636 94.0037 350.607 93.8672 350.549 93.7598C350.549 93.707 350.575 93.6396 350.629 93.5559C350.687 93.474 350.717 93.4066 350.717 93.352C350.717 93.2938 350.675 93.2537 350.593 93.2282C350.509 93.1991 350.494 93.1845 350.549 93.1845V92.7768C350.549 91.792 350.549 90.8218 350.549 89.8643C350.549 88.9086 350.549 87.9384 350.549 86.9518V81.2142C350.549 80.2822 350.564 79.3265 350.593 78.3454C350.622 77.3606 350.636 76.4013 350.636 75.4693C350.636 74.4845 350.622 73.5142 350.593 72.5568C350.564 71.6011 350.549 70.6327 350.549 69.6515C350.549 68.7195 350.575 67.7639 350.629 66.7827C350.687 65.7979 350.717 64.8386 350.717 63.9066V58.169C350.717 57.1842 350.702 56.214 350.673 55.2565C350.647 54.3008 350.636 53.3306 350.636 52.344C350.636 52.2912 350.647 52.253 350.673 52.2275C350.702 52.1984 350.717 52.1547 350.717 52.0964C350.717 51.878 350.689 51.716 350.636 51.6086C350.636 51.4976 350.498 51.4411 350.221 51.4411C350.167 51.4411 350.112 51.4302 350.054 51.4047C349.999 51.3756 349.947 51.361 349.894 51.361C349.126 51.361 348.359 51.3756 347.593 51.4047C346.83 51.4302 346.066 51.4411 345.299 51.4411C344.589 51.4411 343.838 51.4156 343.042 51.361C342.25 51.3082 341.473 51.2809 340.712 51.2809H340.465C340.352 51.3356 340.283 51.4029 340.253 51.4848C340.228 51.5686 340.19 51.6632 340.137 51.7688C340.024 52.1001 339.969 52.2912 339.969 52.344C339.969 53.3306 339.984 54.3154 340.013 55.3002C340.042 56.2813 340.057 57.2643 340.057 58.2491C340.057 59.1775 340.042 60.1331 340.013 61.1179C339.984 62.1045 339.969 63.0893 339.969 64.0741V69.8918C339.969 70.8784 339.969 71.8632 339.969 72.848C339.969 73.8346 339.969 74.8176 339.969 75.7969C339.969 76.7289 339.984 77.6882 340.013 78.673C340.042 79.6542 340.057 80.6371 340.057 81.6219C340.057 82.6085 340.042 83.5933 340.013 84.5781C339.984 85.5592 339.969 86.5149 339.969 87.4469C339.969 88.4281 339.955 89.411 339.926 90.3958C339.9 91.3824 339.889 92.3672 339.889 93.352V93.9199C339.889 94.0328 339.929 94.1566 340.013 94.2913C340.095 94.4278 340.137 94.5516 340.137 94.6626C340.137 94.8811 340.122 95.0886 340.093 95.2815C340.068 95.4709 340.082 95.6456 340.137 95.8058C340.19 95.9714 340.217 96.1243 340.217 96.2645C340.217 96.401 340.242 96.523 340.297 96.6286C340.355 96.7942 340.41 96.9453 340.465 97.08C340.517 97.2165 340.545 97.3676 340.545 97.5314L340.872 98.5945C340.983 98.9258 341.08 99.268 341.164 99.6212C341.245 99.9761 341.367 100.291 341.528 100.568C341.639 100.841 341.804 101.099 342.023 101.347C342.241 101.591 342.432 101.849 342.598 102.126C342.869 102.617 343.17 103.054 343.501 103.437C343.606 103.544 343.714 103.71 343.821 103.932C343.932 104.15 344.043 104.314 344.156 104.42C344.375 104.638 344.604 104.816 344.848 104.951C345.095 105.088 345.328 105.264 345.547 105.483C345.711 105.595 345.876 105.734 346.042 105.898C346.206 106.063 346.399 106.2 346.617 106.305C346.888 106.471 347.134 106.662 347.353 106.881C347.571 107.099 347.815 107.292 348.088 107.456C348.365 107.621 348.665 107.76 348.991 107.871C349.32 107.978 349.621 108.086 349.894 108.191C350.165 108.246 350.425 108.328 350.673 108.439C350.92 108.546 351.153 108.655 351.372 108.766L352.027 108.934C352.298 108.987 352.53 109.025 352.719 109.05C352.912 109.08 353.119 109.12 353.338 109.174C353.502 109.232 353.68 109.262 353.869 109.262C354.062 109.262 354.243 109.262 354.408 109.262C354.627 109.314 354.816 109.342 354.976 109.342C355.14 109.342 355.306 109.342 355.471 109.342C355.582 109.394 355.706 109.365 355.843 109.254C355.977 109.147 356.099 109.12 356.207 109.174V109.262C356.265 109.262 356.319 109.247 356.374 109.218C356.427 109.189 356.48 109.174 356.534 109.174H356.869C357.088 109.174 357.359 109.12 357.685 109.014C357.956 109.014 358.227 109.014 358.5 109.014C358.777 109.014 359.05 108.987 359.323 108.934C359.434 108.821 359.49 108.766 359.49 108.766C359.596 108.714 359.705 108.686 359.818 108.686C359.929 108.686 360.011 108.657 360.066 108.599C360.171 108.546 360.308 108.519 360.473 108.519C360.637 108.519 360.803 108.493 360.969 108.439C361.24 108.328 361.486 108.191 361.704 108.031C361.922 107.867 362.141 107.729 362.359 107.616C362.578 107.51 362.769 107.403 362.934 107.296C363.098 107.185 363.264 107.099 363.43 107.041C363.701 106.935 363.932 106.799 364.121 106.633C364.314 106.469 364.522 106.333 364.74 106.225C364.904 106.061 365.082 105.925 365.272 105.818C365.461 105.706 365.638 105.568 365.803 105.402C365.914 105.297 366.024 105.189 366.131 105.082C366.242 104.971 366.351 104.886 366.459 104.827L367.442 103.844C367.553 103.68 367.676 103.517 367.813 103.356C367.948 103.193 368.071 103.027 368.184 102.861C368.348 102.697 368.485 102.519 368.592 102.33C368.703 102.137 368.785 101.929 368.84 101.711C369.003 101.44 369.182 101.183 369.371 100.939C369.564 100.692 369.715 100.459 369.823 100.24C369.934 100.076 370.016 99.8979 370.07 99.7085C370.123 99.5156 370.176 99.3081 370.23 99.0896C370.23 99.0368 370.285 98.9549 370.398 98.8421C370.398 98.6782 370.451 98.4853 370.558 98.2668L370.806 96.7087C370.864 96.5485 370.904 96.3737 370.929 96.1844C370.958 95.9915 370.998 95.7839 371.053 95.5655C371.106 95.3471 371.148 95.1559 371.177 94.9903C371.206 94.8265 371.221 94.6335 371.221 94.4151C371.221 94.3623 371.164 94.1711 371.053 93.8399C371.053 93.7343 371.079 93.6123 371.133 93.4758C371.191 93.3356 371.221 93.2118 371.221 93.1044V86.3766C371.221 85.2844 371.231 84.1667 371.257 83.0199C371.286 81.8695 371.301 80.7482 371.301 79.656C371.301 78.5055 371.259 77.3697 371.177 76.2484C371.093 75.127 371.053 74.0203 371.053 72.9281Z" fill="#6CB40C"/>
<path d="M403.691 85.4737C403.691 82.2517 403.676 79.028 403.647 75.8042C403.622 72.5768 403.611 69.3785 403.611 66.2075C403.611 65.6068 403.663 65.0043 403.771 64.4017C403.882 63.801 404.21 63.3896 404.754 63.1712C405.03 63.0602 405.289 63.0037 405.533 63.0037C405.78 63.0037 406.039 63.0037 406.312 63.0037C407.626 63.1166 408.993 63.1166 410.411 63.0037C410.688 62.951 410.961 62.8982 411.234 62.8436C411.505 62.7853 411.751 62.647 411.97 62.4285C412.192 62.2101 412.315 61.9807 412.341 61.7368C412.37 61.4892 412.41 61.2308 412.465 60.9577C412.576 59.7545 412.618 58.5658 412.588 57.3899C412.559 56.2158 412.49 55.0271 412.385 53.8221C412.33 53.4926 412.275 53.165 412.217 52.8391C412.162 52.5096 412 52.2348 411.729 52.0163C411.511 51.7979 411.236 51.6778 410.906 51.6523C410.575 51.6231 410.275 51.6086 410.004 51.6086C406.013 51.4448 402.034 51.361 398.07 51.361C394.109 51.361 390.133 51.4156 386.143 51.5212C385.812 51.5212 385.497 51.5503 385.196 51.6086C384.894 51.6632 384.608 51.7724 384.337 51.9362C383.842 52.2093 383.538 52.6334 383.427 53.2105C383.32 53.7839 383.267 54.3682 383.267 54.9652C383.212 55.7334 383.187 56.5271 383.187 57.3462C383.187 58.1672 383.187 58.9608 383.187 59.7272C383.187 60.1113 383.212 60.5208 383.267 60.9577C383.325 61.3946 383.463 61.7769 383.682 62.1009C384.064 62.5377 384.556 62.8126 385.153 62.9236C385.753 63.0365 386.329 63.0911 386.878 63.0911H389.747C390.566 62.9801 391.196 63.1166 391.633 63.4989C391.851 63.7173 391.986 64.0049 392.041 64.3581C392.099 64.713 392.128 65.0552 392.128 65.3847V82.5248C392.128 84.822 392.128 87.1047 392.128 89.3764C392.128 91.6445 392.128 93.9254 392.128 96.2208V103.029C392.128 103.52 392.139 104.024 392.165 104.543C392.194 105.064 392.181 105.568 392.128 106.058C392.074 106.442 392.074 106.813 392.128 107.172C392.181 107.527 392.399 107.84 392.783 108.111C393.107 108.33 393.462 108.466 393.846 108.519C394.229 108.573 394.613 108.599 394.997 108.599C395.982 108.657 396.965 108.701 397.946 108.73C398.931 108.755 399.943 108.741 400.982 108.686C401.312 108.686 401.654 108.646 402.009 108.563C402.362 108.481 402.65 108.33 402.868 108.111C403.197 107.84 403.389 107.485 403.443 107.048C403.496 106.608 403.523 106.196 403.523 105.817C403.582 102.424 403.622 99.0204 403.647 95.6019C403.676 92.1852 403.691 88.8085 403.691 85.4737Z" fill="#6CB40C"/>
<path d="M423.285 79.8962C423.285 80.9939 423.299 82.0879 423.328 83.1801C423.358 84.2723 423.372 85.3645 423.372 86.4566V92.937C423.372 94.0346 423.372 95.1286 423.372 96.2208C423.372 97.313 423.372 98.4052 423.372 99.4974V106.058C423.372 106.116 423.343 106.202 423.285 106.313C423.23 106.42 423.205 106.527 423.205 106.633L423.452 107.376C423.671 107.973 423.971 108.3 424.355 108.359C424.461 108.413 424.583 108.413 424.719 108.359C424.859 108.3 424.983 108.271 425.09 108.271C426.405 108.271 427.719 108.286 429.03 108.315C430.34 108.344 431.68 108.359 433.049 108.359C433.154 108.359 433.276 108.344 433.413 108.315C433.553 108.286 433.65 108.271 433.704 108.271C433.975 108.166 434.137 108.086 434.192 108.031C434.469 107.867 434.607 107.592 434.607 107.208C434.66 107.097 434.713 106.988 434.767 106.881C434.82 106.77 434.847 106.66 434.847 106.553C434.847 105.679 434.833 104.805 434.804 103.932C434.778 103.054 434.767 102.177 434.767 101.303C434.767 100.429 434.778 99.5556 434.804 98.6819C434.833 97.8045 434.847 96.9271 434.847 96.0533C434.847 95.1796 434.82 94.3058 434.767 93.4321C434.713 92.5583 434.713 91.6828 434.767 90.8036C434.767 90.4795 434.793 90.2611 434.847 90.1482C434.847 90.0955 434.902 90.0154 435.015 89.908C435.126 89.7969 435.25 89.7551 435.386 89.7842C435.521 89.8097 435.615 89.7951 435.67 89.7405H436.74C437.119 89.7405 437.472 89.7296 437.804 89.7041C438.133 89.675 438.461 89.6604 438.786 89.6604C439.169 89.6604 439.524 89.6458 439.85 89.6167C440.179 89.5876 440.508 89.573 440.84 89.573H440.92C441.191 89.573 441.451 89.6149 441.699 89.6968C441.947 89.7805 442.18 89.8497 442.398 89.908C442.504 89.9626 442.64 89.9881 442.806 89.9881C442.97 89.9881 443.106 90.0427 443.213 90.1482C443.49 90.2611 443.749 90.3849 443.993 90.5196C444.24 90.6561 444.473 90.8327 444.692 91.0511C444.855 91.2168 444.992 91.4079 445.099 91.6263C445.21 91.8448 445.32 92.0632 445.427 92.2817C445.538 92.5547 445.62 92.855 445.675 93.1845C445.727 93.5158 445.784 93.869 445.842 94.2476C445.842 94.4715 445.867 94.719 445.922 94.9903C445.975 95.2633 446.031 95.5345 446.09 95.8058C446.09 96.7378 446.075 97.6825 446.046 98.6382C446.017 99.5957 446.002 100.539 446.002 101.471C446.002 102.399 446.017 103.34 446.046 104.296C446.075 105.253 446.09 106.196 446.09 107.128C446.09 107.183 446.06 107.265 446.002 107.376C445.948 107.483 445.922 107.592 445.922 107.703C445.975 108.082 446.275 108.38 446.825 108.599C447.149 108.712 447.395 108.766 447.56 108.766H455.927C455.979 108.766 456.007 108.766 456.007 108.766C456.007 108.766 456.036 108.766 456.094 108.766C456.418 108.766 456.691 108.684 456.91 108.519L457.157 108.271C457.268 108.166 457.377 107.947 457.485 107.616V106.961C457.485 105.976 457.485 104.978 457.485 103.968C457.485 102.96 457.485 101.935 457.485 100.895C457.485 99.9106 457.47 98.913 457.441 97.9028C457.416 96.8889 457.405 95.8622 457.405 94.8228V93.352C457.405 93.1882 457.43 93.0098 457.485 92.8205C457.538 92.6275 457.538 92.4473 457.485 92.2817C457.485 92.0104 457.428 91.7392 457.317 91.4661C457.21 91.1895 457.13 90.9419 457.077 90.7235C457.022 90.3994 456.968 90.0864 456.91 89.7842C456.855 89.4838 456.773 89.1944 456.662 88.9177C456.607 88.7575 456.54 88.6101 456.458 88.4736C456.374 88.3334 456.28 88.1805 456.174 88.0148C456.008 87.5252 455.79 87.0064 455.519 86.4566C455.353 86.1854 455.162 85.9142 454.944 85.6411C454.725 85.3699 454.532 85.0951 454.368 84.8184C454.203 84.6545 454.012 84.4088 453.793 84.083C453.686 83.9191 453.686 83.6716 453.793 83.3403C453.793 83.1801 453.822 83.0454 453.881 82.9325C454.041 82.7141 454.203 82.4847 454.368 82.2408C454.532 81.9932 454.698 81.7602 454.863 81.5418C454.969 81.378 455.106 81.2269 455.271 81.0904C455.435 80.9557 455.572 80.7773 455.679 80.5588C455.79 80.395 455.872 80.2166 455.927 80.0273C455.979 79.8344 456.036 79.6541 456.094 79.4885C456.2 79.3247 456.294 79.1463 456.378 78.957C456.46 78.764 456.555 78.5856 456.662 78.4254C456.773 78.207 456.855 77.9886 456.91 77.7701C456.968 77.5517 457.022 77.3314 457.077 77.1075C457.183 76.8363 457.319 76.5651 457.485 76.292C457.649 76.0208 457.758 75.7459 457.812 75.4692C457.865 75.2508 457.892 75.0469 457.892 74.8576C457.892 74.6647 457.922 74.4571 457.98 74.2387L458.22 72.6004C458.22 72.4894 458.22 72.3947 458.22 72.3165C458.22 72.2345 458.22 72.1381 458.22 72.0252C458.22 71.8614 458.235 71.6976 458.264 71.5374C458.293 71.3735 458.308 71.2079 458.308 71.0422V69.404C458.308 69.404 458.318 69.404 458.344 69.404C458.373 69.404 458.388 69.404 458.388 69.404C458.388 69.1855 458.346 68.9944 458.264 68.8287C458.18 68.6649 458.14 68.4993 458.14 68.3336C458.085 68.0624 458.071 67.8057 458.096 67.5618C458.125 67.3142 458.085 67.0812 457.98 66.8628C457.922 66.4805 457.783 66.04 457.565 65.5449C457.51 65.2737 457.443 64.9879 457.361 64.6857C457.277 64.3854 457.183 64.0996 457.077 63.8265C456.964 63.497 456.853 63.1694 456.742 62.8436C456.635 62.5141 456.498 62.2137 456.334 61.9407L456.254 61.613C456.147 61.3946 456.023 61.1907 455.883 61.0014C455.746 60.8084 455.599 60.6009 455.439 60.3825C455.326 60.1641 455.202 59.9602 455.067 59.7709C454.931 59.5779 454.807 59.3977 454.696 59.2321C454.53 58.9608 454.339 58.7424 454.121 58.5767C453.902 58.4129 453.709 58.22 453.546 58.0015C453.385 57.8377 453.249 57.6593 453.138 57.47C453.03 57.2807 452.894 57.1041 452.73 56.9385C452.564 56.8274 452.399 56.6909 452.235 56.5307C452.069 56.3669 451.933 56.2285 451.827 56.1157C451.662 56.0101 451.496 55.8736 451.332 55.7079C451.172 55.5441 451.035 55.4076 450.924 55.3002L449.119 54.0696C449.064 54.0696 449.009 54.0842 448.951 54.1133C448.896 54.1388 448.844 54.1243 448.791 54.0696C448.684 54.0114 448.56 53.9568 448.42 53.9022C448.283 53.8494 448.136 53.7966 447.975 53.742C447.863 53.631 447.724 53.5345 447.56 53.4507C447.395 53.3688 447.258 53.3015 447.153 53.2469L446.002 52.7517C445.676 52.6462 445.349 52.5388 445.019 52.4314C444.693 52.3203 444.366 52.2384 444.036 52.1838C443.705 52.0728 443.375 51.9635 443.046 51.8561C442.72 51.7451 442.365 51.6632 441.983 51.6086C441.876 51.6086 441.657 51.554 441.328 51.4411H440.672C440.507 51.4411 440.33 51.4557 440.141 51.4848C439.951 51.5103 439.744 51.5212 439.522 51.5212C439.362 51.4684 438.692 51.4557 437.512 51.4848C436.336 51.5103 434.876 51.5503 433.129 51.6086C432.09 51.6086 431.036 51.5685 429.969 51.4848C428.906 51.4029 427.825 51.361 426.729 51.361C426.403 51.361 426.075 51.3756 425.746 51.4047C425.42 51.4302 425.092 51.4684 424.763 51.5212C424.597 51.5795 424.446 51.594 424.311 51.5649C424.175 51.5358 424.053 51.5776 423.947 51.6887C423.616 51.9071 423.425 52.1529 423.372 52.4241C423.314 52.6425 423.285 52.9993 423.285 53.4944C423.285 54.3682 423.27 55.2419 423.241 56.1157C423.216 56.9894 423.205 57.8668 423.205 58.7442V64.0741C423.205 64.9478 423.23 65.8216 423.285 66.6953C423.343 67.5691 423.372 68.4428 423.372 69.3166C423.372 70.1958 423.343 71.0714 423.285 71.9451C423.23 72.8189 423.205 73.7217 423.205 74.6537C423.205 75.5275 423.216 76.4012 423.241 77.275C423.27 78.1487 423.285 79.0225 423.285 79.8962ZM434.767 70.6345V64.977C434.767 64.7585 434.793 64.5674 434.847 64.4017C434.906 64.2379 434.935 64.045 434.935 63.8265C435.04 63.4443 435.233 63.2513 435.51 63.2513C435.615 63.2513 435.71 63.2404 435.794 63.2149C435.876 63.1858 435.943 63.1712 435.998 63.1712H439.194C439.305 63.1712 439.444 63.1603 439.609 63.1348C439.773 63.1057 439.91 63.0911 440.017 63.0911C440.128 63.0911 440.237 63.1184 440.345 63.1712C440.456 63.2258 440.538 63.2786 440.592 63.3314C440.756 63.3314 440.907 63.346 441.044 63.3751C441.178 63.4042 441.329 63.4461 441.495 63.4989L442.638 63.9867C442.86 64.0996 443.053 64.2234 443.213 64.3581C443.377 64.4946 443.57 64.6184 443.789 64.7294C443.953 64.8368 444.145 64.946 444.364 65.0571C444.582 65.1645 444.746 65.301 444.859 65.4648L445.675 66.4478C445.951 66.8846 446.199 67.4053 446.417 68.006C446.523 68.2826 446.603 68.5575 446.658 68.8287C446.716 69.1018 446.77 69.3748 446.825 69.6515C446.825 69.87 446.85 70.0629 446.905 70.2267C446.958 70.3869 446.958 70.5762 446.905 70.7947C446.905 70.9603 446.878 71.1114 446.825 71.2461C446.77 71.3826 446.716 71.5337 446.658 71.6976C446.658 71.916 446.63 72.1344 446.577 72.3529C446.523 72.5713 446.441 72.7897 446.33 73.0082C446.275 73.2266 446.208 73.4341 446.126 73.6271C446.042 73.8164 445.948 74.0203 445.842 74.2387C445.729 74.4571 445.605 74.6901 445.471 74.9377C445.334 75.1853 445.183 75.3891 445.019 75.5493C444.912 75.715 444.788 75.8679 444.648 76.0081C444.511 76.1446 444.389 76.2665 444.284 76.3721C444.118 76.5378 443.927 76.6615 443.709 76.7435C443.49 76.8272 443.272 76.9219 443.053 77.0274C442.669 77.2459 442.312 77.4534 441.983 77.6463C441.657 77.8356 441.277 77.9867 440.84 78.0978C440.674 78.1524 440.494 78.1669 440.301 78.1415C440.112 78.1123 439.933 78.0978 439.769 78.0978C439.444 78.1524 439.116 78.1669 438.786 78.1415C438.461 78.1123 438.133 78.1251 437.804 78.1779H435.838C435.725 78.1779 435.628 78.1524 435.546 78.0978C435.463 78.0395 435.368 77.9849 435.262 77.9303C435.097 77.7665 434.987 77.63 434.935 77.5226C434.935 77.4698 434.906 77.417 434.847 77.3624C434.793 77.3041 434.767 77.2495 434.767 77.1949V77.0274C434.767 76.8636 434.778 76.7125 434.804 76.576C434.833 76.4413 434.847 76.3193 434.847 76.2119C434.847 75.2799 434.833 74.3516 434.804 73.4232C434.778 72.4912 434.767 71.5629 434.767 70.6345Z" fill="#6CB40C"/>
<path d="M469.125 80.0637V86.7042C469.125 87.8019 469.111 88.9104 469.082 90.0317C469.056 91.1494 469.045 92.2562 469.045 93.352V99.9124C469.045 101.005 469.071 102.111 469.125 103.233C469.183 104.354 469.213 105.461 469.213 106.553C469.213 106.937 469.238 107.212 469.293 107.376C469.456 108.086 469.841 108.493 470.443 108.599C470.662 108.657 470.88 108.686 471.098 108.686C471.317 108.686 471.535 108.686 471.754 108.686C472.68 108.686 473.649 108.701 474.659 108.73C475.673 108.755 476.643 108.766 477.571 108.766C477.735 108.766 477.886 108.741 478.023 108.686C478.163 108.628 478.343 108.599 478.562 108.599C478.667 108.546 478.804 108.508 478.969 108.482C479.133 108.453 479.27 108.384 479.377 108.271C479.488 108.111 479.597 107.813 479.705 107.376C479.869 106.935 479.952 106.524 479.952 106.145C479.952 105.16 479.938 104.19 479.909 103.233C479.883 102.277 479.872 101.307 479.872 100.32C479.872 99.3354 479.883 98.3524 479.909 97.3712C479.938 96.3865 479.952 95.4272 479.952 94.4952V88.5901C479.952 87.6635 479.952 86.7079 479.952 85.7212C479.952 84.7365 479.952 83.7535 479.952 82.7723C479.952 81.7875 479.938 80.8173 479.909 79.8598C479.883 78.9042 479.872 77.9339 479.872 76.9473C479.872 75.9625 479.872 74.9923 479.872 74.0348C479.872 73.0792 479.816 72.1089 479.705 71.1223V65.3046C479.705 64.3198 479.745 63.335 479.829 62.3484C479.911 61.3636 479.952 60.3807 479.952 59.3995C479.952 58.4675 479.938 57.5119 479.909 56.5307C479.883 55.5459 479.872 54.5611 479.872 53.5745V52.7517C479.654 52.151 479.217 51.7688 478.562 51.6086C478.343 51.5503 478.121 51.5212 477.899 51.5212C477.681 51.5212 477.462 51.5212 477.244 51.5212C476.263 51.5212 475.28 51.4957 474.295 51.4411C473.308 51.3883 472.323 51.361 471.339 51.361C471.066 51.361 470.767 51.4156 470.443 51.5212C470.33 51.5795 470.192 51.6231 470.028 51.6523C469.862 51.6778 469.7 51.7433 469.54 51.8489C469.322 52.0728 469.156 52.3731 469.045 52.7517V52.9993C469.045 53.165 469.056 53.3452 469.082 53.5381C469.111 53.7274 469.125 53.9058 469.125 54.0696V60.5427C469.125 61.6403 469.111 62.7343 469.082 63.8265C469.056 64.9187 469.045 66.0109 469.045 67.1031V73.5834C469.045 74.6228 469.056 75.6913 469.082 76.7871C469.111 77.8793 469.125 78.9715 469.125 80.0637Z" fill="#6CB40C"/>
<path d="M525.794 80.0637C525.794 79.1317 525.82 78.2034 525.874 77.275C525.932 76.3485 525.962 75.4456 525.962 74.5664C525.962 73.6398 525.947 72.7133 525.918 71.7849C525.889 70.8529 525.874 69.9501 525.874 69.0763V63.579C525.874 62.6524 525.889 61.7259 525.918 60.7975C525.947 59.8655 525.962 58.9335 525.962 58.0015C525.962 57.075 525.947 56.1594 525.918 55.2565C525.889 54.3536 525.874 53.4398 525.874 52.5115C525.874 52.4532 525.86 52.4132 525.831 52.3877C525.805 52.3586 525.794 52.3185 525.794 52.2639C525.74 52.1529 525.725 52.0709 525.75 52.0163C525.78 51.9635 525.767 51.9071 525.714 51.8489C525.714 51.6304 525.658 51.4684 525.547 51.361H525.139C524.808 51.361 524.192 51.361 523.289 51.361C522.39 51.361 521.407 51.3756 520.34 51.4047C519.272 51.4302 518.327 51.4411 517.508 51.4411C516.693 51.4411 516.228 51.4411 516.117 51.4411H515.95C515.624 51.4411 515.406 51.5776 515.295 51.8489V52.5115C515.295 53.5509 515.32 54.5757 515.375 55.5841C515.433 56.5944 515.462 57.6484 515.462 58.7442C515.462 59.7836 515.447 60.8084 515.418 61.8169C515.393 62.8272 515.382 63.8811 515.382 64.977C515.382 66.0164 515.353 67.0412 515.295 68.0496C515.24 69.0599 515.214 70.1139 515.214 71.2097C515.214 72.2491 515.24 73.2739 515.295 74.2824C515.353 75.2927 515.382 76.3466 515.382 77.4425C515.382 78.4819 515.353 79.5067 515.295 80.5152C515.24 81.5254 515.214 82.5794 515.214 83.6752C515.214 84.7146 515.255 85.7394 515.338 86.7479C515.42 87.7582 515.462 88.8121 515.462 89.908C515.462 90.9474 515.433 91.9722 515.375 92.9806C515.32 93.9909 515.295 95.0412 515.295 96.1334C515.295 96.1917 515.28 96.2772 515.251 96.3883C515.225 96.4957 515.24 96.6031 515.295 96.7086V96.796C515.295 96.8506 515.309 96.9034 515.338 96.9562C515.367 97.0108 515.353 97.0927 515.295 97.2038C515.295 97.2584 515.24 97.3403 515.134 97.4513C515.134 97.6115 515.078 97.7207 514.967 97.779C514.86 97.8336 514.668 97.8591 514.392 97.8591C514.066 97.8591 513.847 97.8336 513.736 97.779C513.576 97.779 513.398 97.779 513.205 97.779C513.016 97.779 512.837 97.7499 512.673 97.6916C512.508 97.6388 512.357 97.5587 512.222 97.4513C512.085 97.3403 511.934 97.2584 511.77 97.2038C511.552 97.0927 511.304 97.0108 511.028 96.9562C510.755 96.9034 510.483 96.8506 510.212 96.796C509.939 96.6322 509.639 96.4811 509.309 96.3446C508.984 96.2044 508.683 96.0533 508.407 95.8932C508.188 95.7293 507.981 95.5509 507.788 95.3616C507.598 95.1687 507.394 94.9885 507.176 94.8228L506.688 94.335C506.63 94.2767 506.492 94.1948 506.273 94.0874C506.273 93.9764 506.273 93.9199 506.273 93.9199C506.273 93.9199 506.193 93.8398 506.033 93.6796L505.618 93.2646C505.563 93.159 505.496 93.0225 505.414 92.8569C505.33 92.693 505.236 92.5565 505.13 92.4491C505.017 92.2853 504.921 92.1196 504.839 91.954C504.755 91.7902 504.66 91.6263 504.555 91.4661C504.5 91.3023 504.418 91.1367 504.307 90.971C504.2 90.8072 504.118 90.6415 504.06 90.4759C503.952 90.2575 503.828 90.0809 503.688 89.9444C503.552 89.8097 503.457 89.6313 503.404 89.4128C503.186 88.8649 503.022 88.2624 502.916 87.6071C502.858 87.3359 502.829 87.0501 502.829 86.7479C502.829 86.4475 502.802 86.1618 502.749 85.8887C502.583 84.7929 502.501 83.7535 502.501 82.7723V76.6998C502.501 75.6622 502.516 74.6374 502.545 73.6271C502.574 72.6132 502.589 71.6156 502.589 70.6345C502.589 69.5969 502.56 68.5721 502.501 67.5618C502.447 66.5479 502.421 65.5485 502.421 64.5619C502.421 63.5244 502.432 62.4995 502.458 61.4892C502.487 60.4808 502.501 59.4833 502.501 58.4966C502.501 57.4591 502.474 56.4342 502.421 55.424C502.367 54.41 502.341 53.4107 502.341 52.4241V51.9362C502.287 51.7724 502.177 51.6632 502.014 51.6086C501.955 51.6086 501.899 51.5685 501.846 51.4848C501.792 51.4029 501.739 51.361 501.686 51.361C500.972 51.361 500.231 51.3756 499.465 51.4047C498.702 51.4302 497.938 51.4411 497.172 51.4411C496.462 51.4411 495.739 51.4557 495.002 51.4848C494.263 51.5103 493.511 51.5212 492.745 51.5212C492.69 51.5212 492.664 51.5103 492.664 51.4848C492.664 51.4557 492.637 51.4411 492.584 51.4411C492.36 51.4411 492.195 51.6068 492.089 51.9362C491.976 52.1547 491.922 52.3185 491.922 52.4241C491.922 53.3033 491.907 54.1934 491.878 55.0963C491.853 55.9955 491.842 56.9093 491.842 57.8413C491.842 58.7151 491.867 59.5888 491.922 60.4626C491.98 61.3363 492.009 62.2392 492.009 63.1712C492.009 64.045 491.995 64.9333 491.965 65.8361C491.936 66.739 491.922 67.6546 491.922 68.5812V73.9111C491.922 74.7848 491.922 75.6731 491.922 76.576C491.922 77.4789 491.922 78.3672 491.922 79.2409C491.922 80.6098 491.936 81.9787 491.965 83.3476C491.995 84.7128 492.089 86.078 492.249 87.4469L492.497 88.5901C492.555 88.8667 492.595 89.1416 492.621 89.4128C492.65 89.6859 492.69 89.9589 492.745 90.2356C492.856 90.6725 492.992 91.1094 493.152 91.5462C493.316 91.9831 493.482 92.42 493.647 92.8569C493.753 93.0753 493.848 93.2937 493.931 93.5122C494.013 93.7306 494.11 93.9491 494.223 94.1675C494.275 94.3859 494.328 94.5934 494.383 94.7864C494.441 94.9757 494.496 95.1541 494.55 95.3179C494.603 95.4253 494.698 95.5491 494.834 95.6893C494.969 95.8258 495.067 95.9478 495.126 96.0533C495.231 96.2718 495.311 96.4793 495.366 96.6722C495.424 96.8616 495.506 97.0654 495.613 97.2839C495.672 97.3967 495.739 97.4932 495.817 97.5751C495.899 97.6534 495.97 97.748 496.028 97.8591C496.134 98.0775 496.283 98.2705 496.473 98.4343C496.666 98.6 496.817 98.7911 496.924 99.0095C497.035 99.228 497.159 99.4464 497.295 99.6648C497.43 99.8833 497.581 100.076 497.747 100.24C497.858 100.4 497.967 100.537 498.074 100.648C498.185 100.755 498.295 100.864 498.402 100.975C498.513 101.088 498.637 101.185 498.773 101.267C498.908 101.345 499.003 101.44 499.057 101.551L499.305 101.798C499.358 101.798 499.385 101.826 499.385 101.878C499.385 101.933 499.414 101.986 499.472 102.039C499.633 102.204 499.807 102.343 499.997 102.454C500.19 102.561 500.37 102.697 500.535 102.861C500.699 102.974 500.863 103.123 501.023 103.313C501.187 103.502 501.38 103.653 501.599 103.764C501.875 103.983 502.134 104.176 502.378 104.339C502.625 104.505 502.858 104.667 503.077 104.827C503.406 105.046 503.734 105.253 504.06 105.446C504.389 105.635 504.717 105.814 505.043 105.978C505.319 106.091 505.578 106.187 505.822 106.269C506.069 106.347 506.302 106.442 506.521 106.553C506.632 106.608 506.755 106.675 506.892 106.757C507.027 106.841 507.178 106.908 507.343 106.961C507.507 107.015 507.686 107.07 507.875 107.128C508.064 107.183 508.27 107.265 508.494 107.376C508.765 107.43 509.011 107.498 509.229 107.58C509.448 107.663 509.666 107.731 509.885 107.783L510.948 108.031C511.112 108.086 511.277 108.111 511.443 108.111C511.607 108.111 511.772 108.138 511.938 108.191C512.044 108.246 512.18 108.3 512.346 108.359C512.51 108.413 512.646 108.439 512.753 108.439C513.03 108.493 513.278 108.519 513.496 108.519C513.715 108.519 513.933 108.519 514.151 108.519C514.312 108.573 514.612 108.599 515.054 108.599C515.873 108.657 516.365 108.701 516.525 108.73C516.689 108.755 516.784 108.755 516.809 108.73C516.838 108.701 517.044 108.686 517.428 108.686H517.923C518.029 108.628 518.247 108.599 518.578 108.599C519.616 108.599 520.626 108.628 521.607 108.686C522.592 108.741 523.577 108.766 524.564 108.766L524.811 108.599C524.917 108.657 525.011 108.672 525.095 108.643C525.177 108.613 525.244 108.599 525.299 108.599C525.628 108.599 525.794 108.437 525.794 108.111C525.794 108 525.82 107.905 525.874 107.827C525.932 107.745 525.962 107.649 525.962 107.536C525.962 106.609 525.947 105.694 525.918 104.791C525.889 103.888 525.874 102.971 525.874 102.039V96.5485C525.874 95.6165 525.86 94.6881 525.831 93.7597C525.805 92.8277 525.794 91.9249 525.794 91.0511V85.5611C525.794 84.6291 525.794 83.7007 525.794 82.7723C525.794 81.8403 525.794 80.9375 525.794 80.0637Z" fill="#6CB40C"/>
<path d="M539.156 80.0637V86.7042C539.156 87.8019 539.142 88.9104 539.113 90.0317C539.087 91.1494 539.076 92.2562 539.076 93.352V99.9124C539.076 101.005 539.102 102.111 539.156 103.233C539.215 104.354 539.244 105.461 539.244 106.553C539.244 106.937 539.269 107.212 539.324 107.376C539.488 108.086 539.872 108.493 540.474 108.599C540.693 108.657 540.911 108.686 541.13 108.686C541.348 108.686 541.567 108.686 541.785 108.686C542.712 108.686 543.68 108.701 544.69 108.73C545.704 108.755 546.674 108.766 547.603 108.766C547.767 108.766 547.918 108.741 548.054 108.686C548.194 108.628 548.375 108.599 548.593 108.599C548.699 108.546 548.835 108.508 549.001 108.482C549.165 108.453 549.301 108.384 549.408 108.271C549.519 108.111 549.629 107.813 549.736 107.376C549.9 106.935 549.984 106.524 549.984 106.145C549.984 105.16 549.969 104.19 549.94 103.233C549.914 102.277 549.904 101.307 549.904 100.32C549.904 99.3354 549.914 98.3524 549.94 97.3712C549.969 96.3865 549.984 95.4272 549.984 94.4952V88.5901C549.984 87.6635 549.984 86.7079 549.984 85.7212C549.984 84.7365 549.984 83.7535 549.984 82.7723C549.984 81.7875 549.969 80.8173 549.94 79.8598C549.914 78.9042 549.904 77.9339 549.904 76.9473C549.904 75.9625 549.904 74.9923 549.904 74.0348C549.904 73.0792 549.847 72.1089 549.736 71.1223V65.3046C549.736 64.3198 549.776 63.335 549.86 62.3484C549.942 61.3636 549.984 60.3807 549.984 59.3995C549.984 58.4675 549.969 57.5119 549.94 56.5307C549.914 55.5459 549.904 54.5611 549.904 53.5745V52.7517C549.685 52.151 549.248 51.7688 548.593 51.6086C548.375 51.5503 548.152 51.5212 547.93 51.5212C547.712 51.5212 547.493 51.5212 547.275 51.5212C546.294 51.5212 545.311 51.4957 544.326 51.4411C543.34 51.3883 542.355 51.361 541.37 51.361C541.097 51.361 540.798 51.4156 540.474 51.5212C540.361 51.5795 540.223 51.6231 540.059 51.6523C539.894 51.6778 539.732 51.7433 539.571 51.8489C539.353 52.0728 539.187 52.3731 539.076 52.7517V52.9993C539.076 53.165 539.087 53.3452 539.113 53.5381C539.142 53.7274 539.156 53.9058 539.156 54.0696V60.5427C539.156 61.6403 539.142 62.7343 539.113 63.8265C539.087 64.9187 539.076 66.0109 539.076 67.1031V73.5834C539.076 74.6228 539.087 75.6913 539.113 76.7871C539.142 77.8793 539.156 78.9715 539.156 80.0637Z" fill="#6CB40C"/>
<path d="M562.201 79.9836V82.4447C562.201 83.6443 562.173 84.8329 562.12 86.0125C562.066 87.1884 562.04 88.348 562.04 89.4929C562.04 90.698 562.011 91.8866 561.953 93.0607C561.898 94.2367 561.873 95.398 561.873 96.5485C561.873 97.6953 561.898 98.8421 561.953 99.9925C562.011 101.139 562.04 102.286 562.04 103.437C562.04 103.762 562.026 104.117 561.997 104.5C561.968 104.884 561.953 105.293 561.953 105.73C561.953 106.225 562.006 106.68 562.113 107.092C562.224 107.499 562.472 107.84 562.856 108.111C563.238 108.33 563.675 108.428 564.166 108.402C564.662 108.373 565.128 108.386 565.564 108.439C566.82 108.493 568.036 108.533 569.212 108.563C570.386 108.588 571.575 108.599 572.78 108.599C573.983 108.546 575.172 108.479 576.348 108.395C577.522 108.313 578.711 108.162 579.916 107.944C582.046 107.454 584.097 106.717 586.068 105.73C587.048 105.293 587.991 104.774 588.894 104.172C589.796 103.571 590.685 102.916 591.559 102.206C592.436 101.498 593.257 100.775 594.02 100.036C594.786 99.2935 595.498 98.4853 596.153 97.6115C596.867 96.7378 597.536 95.864 598.163 94.9903C598.792 94.1165 599.328 93.1882 599.764 92.2016C600.254 91.164 600.676 90.1246 601.031 89.0852C601.385 88.0476 601.672 87.0082 601.891 85.9688C602.331 83.839 602.497 81.651 602.386 79.4084C602.386 78.3162 602.302 77.224 602.138 76.1318C601.973 75.036 601.754 73.9675 601.483 72.9281C601.264 71.8359 600.977 70.771 600.624 69.7316C600.269 68.694 599.845 67.6819 599.349 66.6953C598.805 65.7105 598.203 64.7949 597.544 63.9503C596.888 63.102 596.178 62.2665 595.418 61.4456C594.704 60.6264 593.936 59.8473 593.117 59.1083C592.296 58.371 591.449 57.7012 590.576 57.0986C589.702 56.4433 588.799 55.8153 587.867 55.2128C586.939 54.6121 585.956 54.1206 584.918 53.742C583.931 53.3015 582.919 52.9593 581.882 52.7153C580.842 52.4678 579.777 52.2348 578.685 52.0163C576.938 51.7451 575.243 51.5795 573.603 51.5212C572.729 51.5212 571.881 51.4957 571.062 51.4411C570.241 51.3883 569.391 51.361 568.513 51.361C567.916 51.4156 567.286 51.4557 566.628 51.4848C565.972 51.5103 565.317 51.5212 564.662 51.5212C564.336 51.5212 563.994 51.5358 563.635 51.5649C563.28 51.594 562.967 51.7451 562.696 52.0163C562.419 52.2894 562.224 52.6316 562.113 53.043C562.006 53.4507 561.953 53.8731 561.953 54.3099V60.7101C561.953 61.7495 561.953 62.8144 561.953 63.9066C561.953 64.9988 561.953 66.0946 561.953 67.1905C561.953 68.2299 561.978 69.2838 562.033 70.3505C562.091 71.4136 562.12 72.4912 562.12 73.5834C562.12 74.6228 562.131 75.6768 562.157 76.7435C562.186 77.8065 562.201 78.8878 562.201 79.9836ZM573.435 79.9836V75.0615C573.435 74.2424 573.435 73.4214 573.435 72.6004C573.435 71.7813 573.435 70.9603 573.435 70.1394C573.435 69.3202 573.461 68.4993 573.516 67.6783C573.574 66.8592 573.603 66.0382 573.603 65.2172C573.603 64.946 573.628 64.6748 573.683 64.4017C573.736 64.1251 573.872 63.8775 574.091 63.6591C574.309 63.3878 574.582 63.2258 574.914 63.1712C575.243 63.1184 575.598 63.1184 575.977 63.1712C577.835 63.4443 579.559 63.963 581.146 64.7294C581.965 65.1135 582.73 65.5795 583.44 66.1274C584.153 66.6717 584.838 67.2706 585.493 67.9259C586.149 68.5284 586.789 69.171 587.415 69.8554C588.045 70.5362 588.553 71.2589 588.937 72.0252C589.374 72.8462 589.742 73.6817 590.044 74.53C590.344 75.3746 590.577 76.2629 590.743 77.1949C590.849 77.579 590.903 77.9485 590.903 78.3017C590.903 78.6566 590.903 78.9988 590.903 79.3283C590.903 80.4205 590.819 81.5127 590.656 82.6049C590.495 83.4786 590.317 84.3669 590.124 85.2698C589.935 86.1727 589.622 87.0355 589.185 87.8547C588.364 89.442 587.27 90.8909 585.901 92.2016C585.246 92.8569 584.519 93.4175 583.724 93.8835C582.932 94.3495 582.155 94.801 581.394 95.2378C580.573 95.6165 579.737 95.9714 578.889 96.3009C578.045 96.6322 577.156 96.8506 576.224 96.9562H575.736C575.518 96.9562 575.31 96.9453 575.117 96.9198C574.928 96.8907 574.724 96.8506 574.506 96.796C574.506 96.796 574.382 96.6468 574.134 96.3446C573.887 96.0442 573.736 95.8385 573.683 95.7257C573.628 95.4545 573.614 95.1832 573.639 94.9102C573.668 94.6335 573.683 94.3859 573.683 94.1675V89.9881C573.683 88.6192 573.654 87.2539 573.596 85.8887C573.541 84.5198 573.516 83.151 573.516 81.7821C573.516 81.5109 573.501 81.2251 573.472 80.9229C573.446 80.6225 573.435 80.3095 573.435 79.9836Z" fill="#6CB40C"/>
<path d="M644.205 80.0637V74.5664C644.205 73.6398 644.22 72.7133 644.249 71.7849C644.278 70.8529 644.293 69.9501 644.293 69.0763C644.293 68.1443 644.303 67.216 644.329 66.2876C644.358 65.3556 644.373 64.4527 644.373 63.579V63.0038C644.373 62.2429 644.373 61.4929 644.373 60.7539C644.373 60.0112 644.373 59.2594 644.373 58.4967C644.373 57.6775 644.384 56.8566 644.409 56.0356C644.438 55.2165 644.344 54.3955 644.125 53.5745C643.907 52.648 643.331 52.0491 642.399 51.7761C641.471 51.4994 640.707 51.3356 640.106 51.2809H635.759C635.486 51.2809 635.213 51.2955 634.936 51.3246C634.663 51.3501 634.392 51.3883 634.121 51.4411C633.902 51.4411 633.684 51.4411 633.465 51.4411C633.247 51.4411 633.028 51.4684 632.81 51.5212C632.644 51.5212 632.464 51.5358 632.271 51.5649C632.082 51.594 631.903 51.6086 631.74 51.6086C631.521 51.6632 631.303 51.6778 631.084 51.6523C630.866 51.6232 630.62 51.6359 630.349 51.6887C630.018 51.7433 629.675 51.8252 629.322 51.9363C628.967 52.0437 628.598 52.1529 628.216 52.2639C627.997 52.3185 627.737 52.3731 627.436 52.4314C627.134 52.486 626.848 52.5661 626.577 52.6717C626.412 52.7263 626.246 52.7663 626.082 52.7954C625.916 52.8246 625.754 52.8937 625.594 52.9993C625.157 53.165 624.691 53.3834 624.196 53.6546C624.089 53.7129 623.98 53.7693 623.869 53.8221C623.761 53.8767 623.652 53.9295 623.541 53.9823C623.486 54.0405 623.352 54.0697 623.133 54.0697L622.391 54.4774C622.172 54.5848 621.954 54.7505 621.735 54.9725C621.517 55.191 621.271 55.3803 621 55.5405C620.834 55.6533 620.669 55.7498 620.505 55.8317C620.345 55.9155 620.181 56.0101 620.017 56.1157C619.962 56.1703 619.908 56.2377 619.849 56.3196C619.795 56.4033 619.742 56.4998 619.689 56.6108C619.576 56.6654 619.438 56.7473 619.274 56.8584C619.114 56.9658 618.977 57.075 618.866 57.186C618.317 57.6775 617.798 58.1963 617.308 58.7442L616.485 59.7272C616.378 59.8346 616.283 59.9711 616.201 60.1349C616.118 60.3006 616.023 60.4662 615.918 60.6301C615.859 60.7375 615.774 60.8467 615.663 60.9577C615.555 61.0651 615.448 61.1743 615.342 61.2854C615.288 61.3928 615.233 61.5293 615.175 61.6931C615.12 61.8588 615.038 62.0244 614.927 62.1883C614.82 62.4067 614.698 62.6142 614.563 62.8072C614.427 62.9965 614.303 63.2277 614.192 63.4989C614.137 63.6645 614.097 63.8302 614.068 63.994C614.043 64.1542 613.975 64.318 613.864 64.4819C613.757 64.7549 613.648 65.0407 613.537 65.341C613.424 65.6432 613.314 65.9308 613.209 66.2075C612.99 66.7518 612.797 67.3798 612.634 68.0934C612.579 68.3664 612.497 68.6522 612.386 68.9525C612.279 69.2547 612.199 69.5405 612.146 69.8117C612.033 70.2486 611.949 70.7146 611.891 71.2097C611.836 71.7012 611.784 72.1909 611.731 72.6805C611.731 72.899 611.716 73.1174 611.687 73.3359C611.662 73.5543 611.651 73.7727 611.651 73.9912C611.596 74.2151 611.571 74.4208 611.571 74.6101C611.571 74.7994 611.541 75.0033 611.483 75.2217V76.6998C611.483 77.7392 611.483 78.7658 611.483 79.7798C611.483 80.79 611.483 81.7876 611.483 82.7724C611.483 83.8118 611.498 84.8366 611.527 85.845C611.556 86.8553 611.571 87.8802 611.571 88.9177C611.571 89.9571 611.541 90.9838 611.483 91.9977C611.429 93.008 611.403 94.0328 611.403 95.0704V101.223C611.403 102.262 611.403 103.289 611.403 104.303C611.403 105.313 611.403 106.338 611.403 107.376C611.403 107.536 611.458 107.782 611.571 108.111C611.571 108.33 611.733 108.493 612.058 108.599C612.222 108.657 612.47 108.686 612.801 108.686C614.165 108.686 615.517 108.701 616.857 108.73C618.197 108.755 619.551 108.766 620.92 108.766C621.08 108.766 621.242 108.777 621.408 108.803C621.571 108.832 621.737 108.847 621.903 108.847C622.392 108.741 622.664 108.495 622.718 108.111C622.718 108 622.704 107.905 622.675 107.827C622.649 107.745 622.638 107.674 622.638 107.616C622.638 106.36 622.624 105.089 622.594 103.808C622.569 102.523 622.558 101.25 622.558 99.9925C622.558 99.6102 622.569 99.2134 622.594 98.8057C622.624 98.3943 622.638 97.9956 622.638 97.6115C622.638 97.3403 622.664 97.1492 622.718 97.0363C622.718 96.7651 622.857 96.6286 623.133 96.6286C623.239 96.5758 623.403 96.5485 623.621 96.5485C625.043 96.5485 626.45 96.5758 627.844 96.6286C629.242 96.6832 630.649 96.7087 632.067 96.7087H632.562C632.673 96.7669 632.768 96.8233 632.846 96.8761C632.928 96.9307 632.999 97.0127 633.058 97.1237C633.058 97.1783 633.068 97.2311 633.094 97.2839C633.123 97.3385 633.138 97.4204 633.138 97.5314C633.138 98.3524 633.109 99.1606 633.05 99.9561C632.996 100.748 632.97 101.551 632.97 102.366C632.97 103.187 632.956 103.995 632.927 104.791C632.901 105.583 632.89 106.389 632.89 107.208C632.89 107.321 632.916 107.459 632.97 107.623C633.028 107.783 633.083 107.92 633.138 108.031C633.138 108.41 633.272 108.655 633.545 108.766C633.656 108.819 633.793 108.819 633.953 108.766C634.117 108.714 634.255 108.686 634.368 108.686C635.624 108.686 636.853 108.714 638.053 108.766C639.256 108.819 640.459 108.847 641.664 108.847C641.941 108.847 642.241 108.847 642.567 108.847C642.896 108.847 643.197 108.819 643.47 108.766H643.797C644.18 108.655 644.373 108.437 644.373 108.111C644.373 108 644.344 107.876 644.285 107.74C644.231 107.605 644.205 107.51 644.205 107.456C644.205 106.524 644.22 105.595 644.249 104.667C644.278 103.735 644.293 102.832 644.293 101.958C644.293 101.032 644.303 100.105 644.329 99.177C644.358 98.245 644.373 97.3421 644.373 96.4684V90.971C644.373 90.039 644.358 89.1252 644.329 88.226C644.303 87.3231 644.293 86.4348 644.293 85.5611C644.293 84.6291 644.278 83.7007 644.249 82.7724C644.22 81.8404 644.205 80.9375 644.205 80.0637ZM633.138 74.0785V79.3283C633.138 80.2021 633.109 81.0649 633.05 81.9132C632.996 82.7578 632.97 83.6443 632.97 84.5708L632.89 84.8985C632.835 85.1224 632.726 85.2607 632.562 85.3135C632.508 85.3135 632.44 85.3281 632.359 85.3572C632.275 85.3827 632.178 85.3936 632.067 85.3936C630.702 85.4482 629.31 85.4737 627.888 85.4737C626.464 85.4737 625.043 85.4737 623.621 85.4737C623.403 85.4737 623.239 85.4482 623.133 85.3936C622.857 85.3936 622.718 85.2589 622.718 84.9859C622.611 84.7674 622.558 84.5763 622.558 84.4106V78.5856C622.558 78.1488 622.583 77.7264 622.638 77.3187C622.691 76.9073 622.718 76.5087 622.718 76.1246V74.8139C622.776 74.5955 622.791 74.3916 622.762 74.2023C622.733 74.0094 622.718 73.8019 622.718 73.5834C622.776 73.1465 622.831 72.737 622.886 72.3529C622.938 71.9706 622.991 71.5884 623.046 71.2097C623.157 70.8803 623.266 70.5526 623.374 70.2268C623.485 69.8973 623.596 69.5678 623.708 69.2365C623.814 68.9653 623.921 68.7468 624.029 68.5812C624.14 68.4174 624.251 68.2244 624.364 68.006C624.469 67.7348 624.591 67.4362 624.728 67.1104C624.868 66.7809 625.019 66.506 625.179 66.2876C625.343 66.0692 625.521 65.878 625.711 65.7124C625.904 65.5486 626.111 65.3829 626.33 65.2173C626.601 64.946 626.861 64.7003 627.109 64.4819C627.356 64.2634 627.642 64.0723 627.968 63.9066C628.079 63.8538 628.216 63.8156 628.376 63.7901C628.54 63.761 628.678 63.7173 628.791 63.6591C628.896 63.6063 629.033 63.5535 629.199 63.4989C629.362 63.4461 629.528 63.3897 629.694 63.3314C629.912 63.2786 630.131 63.2258 630.349 63.1712C630.567 63.1184 630.786 63.062 631.004 63.0038C631.334 63.0038 631.609 62.9783 631.827 62.9237C631.933 62.9237 632.027 62.8982 632.111 62.8436C632.193 62.7853 632.288 62.7562 632.395 62.7562C632.559 62.7562 632.724 62.8399 632.89 63.0038C632.943 63.1166 632.97 63.2804 632.97 63.4989V63.7464C632.97 64.6202 632.985 65.483 633.014 66.3313C633.043 67.1759 633.058 68.0351 633.058 68.9089C633.058 69.7826 633.068 70.6454 633.094 71.4937C633.123 72.3438 633.138 73.2048 633.138 74.0785Z" fill="#6CB40C"/>
</g>
<mask id="mask6_24_476" style="mask-type:luminance" maskUnits="userSpaceOnUse" x="339" y="124" width="258" height="38">
<path d="M596.837 124.86H339.139V161.208H596.837V124.86Z" fill="white"/>
</mask>
<g mask="url(#mask6_24_476)">
<path d="M349.468 133.617C347.505 133.617 346.309 133.882 345.878 134.41C344.873 135.63 344.371 138.26 344.371 142.303C344.371 144.225 344.553 145.84 344.917 147.145C345.281 148.452 345.703 149.341 346.184 149.81C346.664 150.282 347.385 150.516 348.346 150.516C349.311 150.516 350.27 150.382 351.222 150.109C352.173 149.832 352.904 149.559 353.414 149.286L354.208 148.871L355.067 150.815C354.867 150.952 354.595 151.119 354.251 151.317C353.911 151.512 353.19 151.776 352.089 152.111C350.991 152.446 349.883 152.613 348.761 152.613C344.047 152.613 341.691 149.148 341.691 142.216C341.691 137.305 342.712 134.103 344.757 132.612C345.401 132.142 346.084 131.818 346.803 131.643C347.52 131.465 348.61 131.374 350.072 131.374C351.532 131.374 352.912 131.532 354.208 131.847L353.916 133.966C352.111 133.733 350.627 133.617 349.468 133.617Z" fill="#DB6A92"/>
<path d="M361.842 152.228H359.395V130.049H361.842V152.228Z" fill="#DB6A92"/>
<path d="M372.588 128.607L373.389 130.61L366.727 132.874L366.144 131.403L372.588 128.607ZM367.615 152.228V135.087H370.062V152.228H367.615Z" fill="#DB6A92"/>
<path d="M378.598 152.228H376.159V135.088H377.804L378.066 136.762H378.219C380.573 135.39 382.614 134.702 384.343 134.702C385.896 134.702 386.966 135.302 387.554 136.5C388.044 137.501 388.289 138.945 388.289 140.832V152.228H385.814V141.684C385.814 139.447 385.67 138.113 385.384 137.68C385.102 137.248 384.569 137.032 383.782 137.032C382.291 137.032 380.564 137.552 378.598 138.59V152.228Z" fill="#DB6A92"/>
<path d="M396.453 152.228H394.007V135.088H396.453V152.228ZM396.745 132.554H393.737V130.049H396.745V132.554Z" fill="#DB6A92"/>
<path d="M408.558 136.857C407.061 136.857 406.06 137.112 405.55 137.621C405.157 138.055 404.831 138.826 404.575 139.937C404.322 141.044 404.196 142.323 404.196 143.774C404.196 147.076 404.824 149.159 406.082 150.021C406.513 150.333 407.087 150.487 407.8 150.487C408.518 150.487 409.295 150.376 410.13 150.152C410.964 149.925 411.872 149.585 412.854 149.133L413.618 151.048C413.462 151.165 413.241 151.314 412.956 151.492C412.673 151.667 412.076 151.898 411.164 152.184C410.251 152.47 409.331 152.614 408.405 152.614C406.288 152.614 404.629 151.884 403.432 150.422C402.232 148.957 401.633 146.639 401.633 143.468C401.633 140.294 402.29 138.04 403.606 136.704C404.921 135.37 406.726 134.702 409.024 134.702C410.518 134.702 411.914 134.86 413.21 135.175L412.912 137.236C410.795 136.984 409.344 136.857 408.558 136.857Z" fill="#DB6A92"/>
<path d="M423.196 141.684H426.32C426.32 139.389 426.147 138.006 425.803 137.534C425.457 137.059 424.824 136.821 423.903 136.821C422.98 136.821 422.002 136.944 420.968 137.192C419.938 137.439 418.835 137.809 417.655 138.299L416.804 136.384C417.06 136.267 417.401 136.118 417.823 135.932C418.245 135.743 419.033 135.492 420.189 135.175C421.349 134.86 422.41 134.702 423.371 134.702C426.963 134.702 428.759 136.784 428.759 140.949V152.228H427.172L426.815 150.429H426.641C426.446 150.589 426.171 150.793 425.818 151.041C425.463 151.285 424.793 151.607 423.808 152.009C422.827 152.411 421.904 152.614 421.041 152.614C419.647 152.614 418.529 152.138 417.685 151.186C416.84 150.231 416.418 148.825 416.418 146.971C416.418 145.117 416.996 143.772 418.158 142.937C419.317 142.103 420.998 141.684 423.196 141.684ZM426.32 143.949C425.476 143.814 424.281 143.745 422.738 143.745C421.198 143.745 420.213 143.932 419.782 144.306C419.246 144.719 418.981 145.587 418.981 146.912C418.981 148.238 419.172 149.155 419.556 149.665C419.938 150.174 420.519 150.429 421.296 150.429C422.072 150.429 422.862 150.298 423.662 150.036C424.467 149.77 425.354 149.372 426.32 148.842V143.949Z" fill="#DB6A92"/>
<path d="M452.649 130.049V152.228H451.032L450.705 150.458H450.53C450.37 150.618 450.141 150.819 449.846 151.055C449.554 151.288 448.981 151.607 448.127 152.009C447.272 152.411 446.453 152.614 445.666 152.614C444.001 152.614 442.681 151.893 441.705 150.451C440.733 149.006 440.249 146.847 440.249 143.978C440.249 137.794 442.28 134.702 446.343 134.702C447.386 134.702 448.673 134.909 450.202 135.321V130.049H452.649ZM450.202 137.68C448.945 137.152 447.672 136.886 446.387 136.886C445.106 136.886 444.268 137.123 443.875 137.592C443.165 138.515 442.812 140.65 442.812 144C442.812 147.346 443.252 149.362 444.137 150.051C444.394 150.284 444.889 150.4 445.622 150.4C446.36 150.4 447.095 150.274 447.829 150.021C448.566 149.765 449.358 149.381 450.202 148.871V137.68Z" fill="#DB6A92"/>
<path d="M464.199 152.614C459.641 152.614 457.362 149.628 457.362 143.658C457.362 137.687 459.62 134.702 464.134 134.702C466.138 134.702 467.64 135.326 468.641 136.573C469.646 137.822 470.148 139.89 470.148 142.777V144.597H459.955C459.955 147.247 460.377 148.966 461.221 149.752C461.749 150.223 462.476 150.458 463.399 150.458C465.048 150.458 466.67 150.185 468.262 149.636L469.056 149.344L469.675 151.347C468.024 152.191 466.198 152.614 464.199 152.614ZM466.966 137.709C466.573 137.117 465.608 136.821 464.076 136.821C462.547 136.821 461.476 137.225 460.865 138.029C460.257 138.836 459.955 140.377 459.955 142.653L467.644 142.507C467.644 140.057 467.418 138.457 466.966 137.709Z" fill="#DB6A92"/>
<path d="M481.784 131.76H485.228L493.412 149.898H493.565L493.121 131.76H495.538V152.228H492.087L483.932 134.083H483.815L484.194 152.228H481.784V131.76Z" fill="#DB6A92"/>
<path d="M510.885 135.088H513.324V152.228H511.678L511.38 150.575H511.234C511.214 150.575 510.916 150.739 510.339 151.063C509.76 151.388 509.285 151.638 508.911 151.813C507.712 152.346 506.583 152.614 505.526 152.614C502.657 152.614 501.222 150.571 501.222 146.483V135.088H503.669V145.631C503.669 147.888 503.8 149.239 504.062 149.679C504.328 150.122 504.967 150.342 505.977 150.342C506.991 150.342 508.627 149.823 510.885 148.784V135.088Z" fill="#DB6A92"/>
<path d="M522.019 136.085H525.434V138.058H522.019V146.956C522.019 148.607 522.101 149.599 522.267 149.934C522.431 150.265 522.946 150.429 523.81 150.429L525.405 150.371V152.344C524.992 152.441 524.44 152.49 523.752 152.49C522.34 152.49 521.287 152.104 520.599 151.332C519.915 150.557 519.573 149.038 519.573 146.781V138H517.629V136.471L519.66 136.056L520.308 132.051H522.019V136.085Z" fill="#DB6A92"/>
<path d="M537.867 137.206C537.415 137.168 536.928 137.148 536.403 137.148C535.883 137.148 535.211 137.307 534.386 137.621C533.56 137.933 532.912 138.275 532.442 138.648V152.228H530.003V135.088H531.561L531.882 136.821H532.064C532.868 136.234 533.724 135.734 534.627 135.321C535.53 134.909 536.274 134.702 536.862 134.702L538.071 134.847L537.867 137.206Z" fill="#DB6A92"/>
<path d="M544.23 152.228H541.784V135.088H544.23V152.228ZM544.521 132.554H541.514V130.049H544.521V132.554Z" fill="#DB6A92"/>
<path d="M556.334 136.857C554.838 136.857 553.837 137.112 553.327 137.621C552.934 138.055 552.608 138.826 552.351 139.937C552.098 141.044 551.973 142.323 551.973 143.774C551.973 147.076 552.601 149.159 553.859 150.021C554.29 150.333 554.863 150.487 555.577 150.487C556.294 150.487 557.071 150.376 557.907 150.152C558.741 149.925 559.649 149.585 560.63 149.133L561.395 151.048C560.574 151.66 559.496 152.102 558.162 152.373C558.433 153.16 558.57 153.946 558.57 154.732C558.57 155.519 558.267 156.176 557.667 156.706C557.07 157.233 556.3 157.499 555.359 157.499C554.809 157.499 554.093 157.412 553.211 157.237V155.41C554.073 155.506 554.762 155.555 555.271 155.555C555.781 155.555 556.141 155.497 556.356 155.38C556.575 155.264 556.684 154.929 556.684 154.376C556.684 153.826 556.605 153.24 556.451 152.614H556.181C554.064 152.614 552.406 151.884 551.208 150.422C550.009 148.957 549.41 146.639 549.41 143.468C549.41 140.294 550.067 138.04 551.383 136.704C552.697 135.37 554.503 134.702 556.8 134.702C558.295 134.702 559.691 134.86 560.987 135.175L560.688 137.236C558.571 136.984 557.121 136.857 556.334 136.857Z" fill="#DB6A92"/>
<path d="M574.097 141.684C574.097 139.389 573.924 138.005 573.58 137.534C573.234 137.059 572.591 136.82 571.65 136.82C569.626 136.82 567.553 137.314 565.432 138.299L564.58 136.384L565.49 135.969C566.102 135.697 566.956 135.419 568.053 135.131C569.155 134.845 570.187 134.702 571.148 134.702C574.739 134.702 576.536 136.784 576.536 140.949V152.228H574.949L574.592 150.429H574.417L573.682 150.99C573.172 151.345 572.448 151.703 571.512 152.067C570.58 152.431 569.681 152.613 568.818 152.613C567.424 152.613 566.306 152.138 565.461 151.186C564.617 150.231 564.194 148.825 564.194 146.97C564.194 145.117 564.773 143.772 565.935 142.937C567.094 142.103 568.774 141.684 570.973 141.684H574.097ZM569.233 150.429C570.727 150.429 572.349 149.901 574.097 148.842V143.949C572.955 143.814 571.905 143.745 570.944 143.745C569.118 143.745 567.99 143.932 567.558 144.306C567.023 144.719 566.757 145.587 566.757 146.912C566.757 148.237 566.948 149.155 567.333 149.665C567.715 150.174 568.348 150.429 569.233 150.429ZM565.112 132.35C565.112 130.366 565.778 129.372 567.114 129.372C567.72 129.372 568.814 129.608 570.398 130.078C571.98 130.549 572.839 130.784 572.975 130.784C573.208 130.784 573.463 130.344 573.74 129.459L575.298 129.67C575.298 130.73 575.12 131.489 574.767 131.949C574.417 132.412 573.94 132.641 573.34 132.641C572.742 132.641 571.638 132.397 570.027 131.906C568.419 131.416 567.555 131.17 567.434 131.17C567.22 131.17 566.956 131.622 566.641 132.524L565.112 132.35Z" fill="#DB6A92"/>
<path d="M581.398 143.672C581.398 140.736 581.882 138.508 582.854 136.988C583.83 135.464 585.479 134.702 587.806 134.702C590.13 134.702 591.783 135.464 592.764 136.988C593.749 138.508 594.242 140.731 594.242 143.658C594.242 146.585 593.749 148.811 592.764 150.335C591.783 151.854 590.13 152.614 587.806 152.614C585.479 152.614 583.83 151.86 582.854 150.349C581.882 148.835 581.398 146.61 581.398 143.672ZM590.187 137.323C589.666 136.988 588.878 136.821 587.82 136.821C586.761 136.821 585.971 136.988 585.447 137.323C584.926 137.658 584.533 138.311 584.267 139.282C584.005 140.254 583.874 141.712 583.874 143.658C583.874 145.6 583.999 147.063 584.252 148.048C584.509 149.029 584.902 149.686 585.432 150.021C585.965 150.353 586.761 150.517 587.82 150.517C588.878 150.517 589.666 150.353 590.187 150.021C590.711 149.686 591.099 149.029 591.352 148.048C591.608 147.063 591.738 145.6 591.738 143.658C591.738 141.712 591.608 140.254 591.352 139.282C591.099 138.311 590.711 137.658 590.187 137.323Z" fill="#DB6A92"/>
</g>
</svg>
